<?xml version="1.0" standalone="no"?>
<!DOCTYPE svg PUBLIC "-//W3C//DTD SVG 20010904//EN"
 "http://www.w3.org/TR/2001/REC-SVG-20010904/DTD/svg10.dtd">
<svg version="1.0" xmlns="http://www.w3.org/2000/svg"
 width="2700.000000pt" height="2700.000000pt" viewBox="0 0 2700.000000 2700.000000"
 preserveAspectRatio="xMidYMid meet">
<metadata>
Created by potrace 1.11, written by Peter Selinger 2001-2013
</metadata>
<g transform="translate(0.000000,2700.000000) scale(0.100000,-0.100000)"
fill="#000000" stroke="none">
<path d="M3012 25165 c4 -4 0 -14 -10 -21 -23 -18 -37 -18 -23 0 10 12 8 13
-8 9 -12 -3 -18 -10 -14 -16 4 -6 1 -7 -8 -1 -22 13 -42 14 -58 1 -10 -8 -13
-8 -8 -1 4 7 -2 12 -18 12 -14 0 -22 -4 -19 -9 3 -5 0 -9 -5 -9 -6 0 -11 4
-11 9 0 5 -7 12 -16 15 -8 3 -12 2 -9 -4 4 -6 -3 -8 -17 -6 -13 2 -29 -2 -37
-8 -12 -9 -13 -8 -7 2 7 12 4 12 -14 2 -18 -9 -24 -9 -30 0 -6 9 -10 6 -15 -9
-3 -12 -9 -19 -13 -17 -11 6 -32 -21 -24 -30 4 -5 -1 -2 -11 5 -15 12 -17 12
-11 -4 5 -13 4 -16 -4 -11 -7 4 -12 2 -12 -6 0 -7 -9 -19 -20 -26 -11 -7 -20
-21 -20 -33 0 -11 -5 -29 -10 -40 -8 -14 -7 -19 2 -19 10 0 9 -3 -1 -9 -12 -8
-13 -12 -1 -25 11 -14 10 -16 -5 -10 -14 6 -16 4 -9 -7 4 -8 7 -22 5 -33 -2
-13 1 -16 11 -10 10 6 11 5 1 -7 -10 -12 -10 -18 0 -29 9 -10 9 -11 0 -6 -16
9 -18 -20 -3 -29 8 -5 7 -11 -1 -21 -9 -11 -8 -18 2 -31 12 -14 12 -16 0 -8
-11 6 -13 4 -8 -7 3 -9 0 -21 -6 -27 -9 -9 -7 -10 8 -5 17 7 18 5 8 -7 -9 -11
-9 -19 -2 -26 8 -8 7 -13 -2 -18 -8 -6 -10 -4 -4 5 6 9 4 11 -4 6 -9 -6 -8
-12 4 -26 11 -12 13 -20 5 -25 -7 -5 -8 -11 -1 -19 6 -7 6 -17 1 -26 -14 -21
-12 -32 3 -24 7 5 6 0 -3 -11 -12 -15 -13 -19 -1 -23 11 -4 11 -6 0 -12 -10
-7 -10 -12 2 -26 8 -10 9 -15 3 -11 -7 4 -11 -2 -11 -18 0 -16 4 -22 11 -18 6
4 5 -1 -3 -11 -10 -12 -11 -20 -3 -28 8 -8 7 -16 -1 -30 -10 -15 -9 -21 3 -28
8 -5 10 -10 5 -10 -6 0 -11 -9 -12 -20 -1 -13 2 -18 10 -13 7 4 5 -2 -3 -12
-12 -14 -12 -19 -2 -23 10 -3 8 -8 -5 -19 -10 -8 -12 -11 -4 -7 11 5 13 3 8
-9 -4 -10 -1 -17 5 -17 7 0 3 -6 -7 -14 -18 -13 -18 -13 1 -24 10 -6 14 -12 7
-12 -12 0 -12 -17 -1 -35 4 -6 3 -17 -3 -25 -13 -21 -11 -32 4 -24 7 5 7 1 -2
-10 -12 -14 -12 -19 -2 -26 11 -6 11 -8 0 -12 -12 -4 -11 -8 1 -23 8 -10 10
-16 4 -12 -7 4 -11 -2 -11 -18 0 -16 4 -22 11 -18 6 4 5 -1 -3 -11 -13 -15
-13 -19 0 -27 8 -5 9 -9 3 -9 -6 0 -11 -16 -11 -35 0 -19 5 -35 11 -35 6 0 5
-4 -3 -9 -13 -8 -13 -12 0 -27 12 -15 12 -17 0 -9 -11 6 -13 4 -8 -7 3 -9 0
-21 -6 -27 -9 -9 -7 -10 8 -5 17 7 18 5 8 -7 -9 -11 -9 -19 -2 -26 8 -8 7 -13
-2 -18 -8 -6 -10 -4 -4 5 6 9 4 11 -4 6 -9 -6 -8 -12 4 -26 11 -12 13 -20 5
-25 -7 -5 -8 -11 -1 -19 6 -7 6 -17 1 -26 -14 -21 -12 -32 3 -24 7 5 7 1 -2
-10 -12 -14 -12 -19 -2 -26 11 -6 11 -8 0 -12 -12 -4 -11 -8 1 -23 8 -10 10
-16 4 -12 -7 4 -11 -2 -11 -18 0 -16 4 -22 11 -18 6 4 5 -1 -3 -11 -13 -15
-13 -19 0 -27 8 -5 9 -9 3 -9 -6 0 -11 -16 -11 -35 0 -19 5 -35 11 -35 6 0 5
-4 -3 -9 -13 -8 -13 -12 0 -27 12 -15 12 -17 0 -9 -11 6 -13 4 -8 -7 3 -9 0
-21 -6 -27 -9 -9 -7 -10 8 -5 17 7 18 5 8 -7 -9 -11 -9 -19 -2 -26 8 -8 7 -13
-2 -18 -8 -6 -10 -4 -4 5 6 9 4 11 -4 6 -9 -6 -8 -12 4 -26 11 -12 13 -20 5
-25 -7 -5 -8 -11 -1 -19 6 -7 6 -17 1 -26 -14 -21 -12 -32 3 -24 7 5 7 1 -2
-10 -12 -14 -12 -19 -2 -26 11 -6 11 -8 0 -12 -12 -4 -11 -8 1 -23 8 -10 10
-16 4 -12 -7 4 -11 -2 -11 -18 0 -16 4 -22 11 -18 6 4 5 -1 -3 -11 -13 -15
-13 -19 0 -27 8 -5 9 -9 3 -9 -6 0 -11 -16 -11 -35 0 -19 5 -35 11 -35 6 0 5
-4 -3 -9 -13 -8 -13 -12 0 -27 12 -15 12 -17 0 -9 -11 6 -13 4 -8 -7 3 -9 0
-21 -6 -27 -9 -9 -7 -10 8 -5 17 7 18 5 8 -7 -9 -11 -9 -19 -2 -26 8 -8 7 -13
-2 -18 -8 -6 -10 -4 -4 5 6 9 4 11 -4 6 -9 -6 -8 -12 4 -26 11 -12 13 -20 5
-25 -7 -5 -8 -11 -1 -19 6 -7 6 -17 1 -26 -14 -21 -12 -32 3 -24 7 5 7 1 -2
-10 -12 -14 -12 -19 -2 -26 11 -6 11 -8 0 -12 -12 -4 -11 -8 1 -23 8 -10 10
-16 4 -12 -7 4 -11 -2 -11 -18 0 -16 4 -22 11 -18 6 4 5 -1 -3 -11 -13 -15
-13 -19 0 -27 8 -5 9 -9 3 -9 -6 0 -11 -16 -11 -35 0 -19 5 -35 11 -35 6 0 5
-4 -3 -9 -13 -8 -13 -12 0 -27 12 -15 12 -17 0 -9 -11 6 -13 4 -8 -7 3 -9 0
-21 -6 -27 -9 -9 -7 -10 8 -5 17 7 18 5 8 -7 -9 -11 -9 -19 -2 -26 8 -8 7 -13
-2 -18 -8 -6 -10 -4 -4 5 6 9 4 11 -4 6 -9 -6 -8 -12 4 -26 11 -12 13 -20 5
-25 -7 -5 -8 -11 -1 -19 6 -7 6 -17 1 -26 -14 -21 -12 -32 3 -24 7 5 7 1 -2
-10 -12 -14 -12 -19 -2 -26 11 -6 11 -8 0 -12 -11 -4 -12 -8 -2 -20 10 -11 10
-17 0 -27 -9 -9 -9 -14 3 -21 14 -9 6 -15 -15 -10 -5 1 -2 -7 8 -17 15 -17 15
-21 1 -35 -12 -12 -13 -17 -3 -23 8 -6 10 -4 4 5 -5 9 -4 11 4 6 8 -6 9 -12 2
-20 -7 -9 -7 -16 1 -24 8 -8 8 -15 0 -25 -9 -10 -8 -17 1 -27 7 -8 7 -10 1 -7
-7 4 -11 -3 -11 -18 -1 -15 4 -22 11 -18 6 3 6 0 -1 -8 -7 -7 -13 -19 -13 -27
0 -8 5 -10 13 -6 9 6 9 5 0 -7 -9 -11 -9 -19 -2 -26 8 -8 8 -13 0 -17 -6 -4
-11 -14 -11 -22 0 -10 5 -12 13 -8 9 6 9 5 0 -7 -10 -12 -10 -18 0 -29 7 -8 7
-10 1 -7 -7 4 -11 -3 -11 -18 0 -15 4 -22 11 -18 6 3 6 0 -1 -8 -7 -7 -13 -19
-13 -27 0 -8 5 -10 13 -6 9 5 9 4 0 -6 -10 -11 -10 -17 0 -29 7 -9 8 -12 1 -8
-7 4 -11 -2 -11 -18 0 -15 4 -22 11 -18 6 3 6 0 -1 -8 -7 -7 -13 -19 -13 -27
0 -8 5 -10 13 -6 9 6 9 5 0 -7 -9 -11 -9 -19 -2 -26 8 -8 8 -13 0 -17 -6 -4
-11 -14 -11 -22 0 -10 5 -12 13 -8 9 6 9 5 0 -7 -10 -12 -10 -18 0 -29 7 -8 7
-10 1 -7 -7 4 -12 -3 -11 -18 0 -15 4 -22 11 -18 6 3 6 0 -1 -8 -7 -7 -13 -19
-13 -27 0 -8 5 -10 13 -6 9 6 9 5 0 -7 -10 -12 -10 -18 0 -29 7 -8 7 -10 1 -7
-7 4 -11 -3 -11 -18 -1 -15 4 -22 11 -18 6 3 6 0 -1 -8 -7 -7 -13 -19 -13 -27
0 -8 5 -10 13 -6 9 6 9 5 0 -7 -9 -11 -9 -19 -2 -26 8 -8 8 -13 0 -17 -6 -4
-11 -14 -11 -22 0 -10 5 -12 13 -8 9 6 9 5 0 -7 -10 -12 -10 -18 0 -29 7 -8 7
-10 1 -7 -7 4 -11 -3 -11 -18 0 -15 4 -22 11 -18 6 3 6 0 -1 -8 -17 -17 -17
-43 0 -33 9 6 9 5 0 -7 -10 -12 -10 -18 0 -29 7 -8 7 -10 1 -7 -7 4 -11 -3
-11 -18 0 -15 4 -22 11 -18 6 3 6 0 -1 -8 -17 -17 -17 -43 0 -33 9 6 9 5 0 -7
-9 -11 -9 -19 -2 -26 8 -8 8 -13 0 -17 -6 -4 -11 -14 -11 -22 0 -10 5 -12 13
-8 9 6 9 5 0 -7 -10 -12 -10 -18 0 -29 7 -8 7 -10 1 -7 -7 4 -11 -3 -11 -18 0
-15 4 -22 11 -18 6 3 6 0 -1 -8 -7 -7 -13 -19 -13 -27 0 -8 5 -10 13 -6 9 6 9
5 0 -7 -10 -12 -10 -18 0 -29 7 -8 7 -10 1 -7 -7 4 -11 -3 -11 -18 -1 -15 4
-22 11 -18 6 3 6 0 -1 -8 -7 -7 -13 -19 -13 -27 0 -8 5 -10 13 -6 9 6 9 5 0
-7 -9 -11 -9 -19 -2 -26 8 -8 8 -13 0 -17 -6 -4 -11 -14 -11 -22 0 -10 5 -12
13 -8 9 6 9 5 0 -7 -10 -12 -10 -18 0 -29 7 -8 7 -10 1 -7 -7 4 -11 -3 -11
-18 -1 -15 4 -22 11 -18 6 3 6 0 -1 -8 -17 -17 -17 -43 0 -33 9 6 9 5 0 -7
-10 -12 -10 -18 0 -29 7 -8 7 -10 1 -7 -7 4 -11 -3 -11 -18 0 -15 4 -22 11
-18 6 3 6 0 -1 -8 -7 -7 -13 -19 -13 -27 0 -8 5 -10 13 -6 9 6 9 5 0 -7 -9
-11 -9 -19 -2 -26 8 -8 8 -13 0 -17 -6 -4 -11 -14 -11 -22 0 -10 5 -12 13 -8
9 6 9 5 0 -7 -10 -12 -10 -18 0 -29 7 -8 7 -10 1 -7 -7 4 -11 -3 -11 -18 0
-15 4 -22 11 -18 6 3 6 0 -1 -8 -17 -17 -17 -43 0 -33 9 6 9 5 0 -7 -10 -12
-10 -18 0 -29 7 -8 7 -10 1 -7 -7 4 -12 -3 -11 -18 0 -15 4 -22 11 -18 6 3 6
0 -1 -8 -7 -7 -13 -19 -13 -27 0 -8 5 -10 13 -6 9 6 9 5 0 -7 -9 -11 -9 -19
-2 -26 8 -8 8 -13 0 -17 -6 -4 -11 -14 -11 -22 0 -10 5 -12 13 -8 9 6 9 5 0
-7 -10 -12 -10 -18 0 -29 7 -8 7 -10 1 -7 -7 4 -11 -3 -11 -18 -1 -15 4 -22
11 -18 6 3 6 0 -1 -8 -17 -17 -17 -43 0 -33 9 6 9 5 0 -7 -10 -12 -10 -18 0
-29 7 -8 7 -10 1 -7 -7 4 -11 -3 -11 -18 -1 -15 4 -22 11 -18 6 3 6 0 -1 -8
-17 -17 -17 -43 0 -33 9 6 9 5 0 -7 -9 -11 -9 -19 -2 -26 8 -8 8 -13 0 -17 -6
-4 -11 -14 -11 -22 0 -10 5 -12 13 -8 9 6 9 5 0 -7 -10 -12 -10 -18 0 -29 7
-8 7 -10 1 -7 -7 4 -11 -3 -11 -18 -1 -14 4 -22 10 -18 6 4 7 1 1 -8 -12 -19
-13 -69 -1 -69 5 0 4 -7 -3 -15 -10 -12 -10 -18 1 -32 8 -9 9 -14 3 -10 -7 4
-11 -2 -11 -18 -1 -16 4 -22 11 -18 8 5 8 3 0 -8 -15 -20 -16 -61 -1 -52 7 4
6 -1 -2 -11 -13 -15 -13 -19 0 -27 8 -5 9 -9 3 -9 -6 0 -11 -16 -11 -35 0 -19
5 -35 11 -35 6 0 5 -4 -3 -9 -13 -8 -13 -12 0 -27 12 -15 12 -17 0 -9 -11 6
-13 4 -8 -7 3 -9 0 -21 -6 -27 -9 -9 -7 -10 8 -5 17 7 18 5 8 -7 -9 -11 -9
-19 -2 -26 8 -8 7 -13 -2 -18 -8 -6 -10 -4 -4 5 6 9 4 11 -4 6 -9 -6 -8 -12 4
-26 11 -12 13 -20 5 -25 -7 -5 -8 -11 -1 -19 6 -7 6 -17 1 -26 -14 -21 -12
-32 3 -24 7 5 7 1 -2 -10 -12 -14 -12 -19 -2 -26 11 -6 11 -8 0 -12 -12 -4
-11 -8 1 -23 8 -10 10 -16 4 -12 -7 4 -11 -2 -11 -18 -1 -16 4 -22 11 -18 6 4
5 -1 -3 -11 -13 -15 -13 -19 0 -27 8 -5 9 -9 3 -9 -6 0 -11 -16 -11 -35 0 -19
5 -35 11 -35 6 0 5 -4 -3 -9 -13 -8 -13 -12 0 -27 12 -15 12 -17 0 -9 -11 6
-13 4 -8 -7 3 -9 0 -21 -6 -27 -9 -9 -7 -10 8 -5 17 7 18 5 8 -7 -9 -11 -9
-19 -2 -26 8 -8 7 -13 -2 -18 -8 -6 -10 -4 -4 5 6 9 4 11 -4 6 -9 -6 -8 -12 4
-26 11 -12 13 -20 5 -25 -7 -5 -8 -11 -1 -19 6 -7 6 -17 1 -26 -14 -21 -12
-32 3 -24 7 5 7 1 -2 -10 -12 -14 -12 -19 -2 -26 11 -6 11 -8 0 -12 -12 -4
-11 -8 1 -23 8 -10 10 -16 4 -12 -7 4 -11 -2 -11 -18 0 -16 4 -22 11 -18 6 4
5 -1 -3 -11 -13 -15 -13 -19 0 -27 8 -5 9 -9 3 -9 -6 0 -11 -16 -11 -35 0 -19
5 -35 11 -35 6 0 5 -4 -3 -9 -13 -8 -13 -12 0 -27 12 -15 12 -17 0 -9 -11 6
-13 4 -8 -7 3 -9 0 -21 -6 -27 -9 -9 -7 -10 8 -5 17 7 18 5 8 -7 -9 -11 -9
-19 -2 -26 8 -8 7 -13 -2 -18 -8 -6 -10 -4 -4 5 6 9 4 11 -4 6 -9 -6 -8 -12 4
-26 11 -12 13 -20 5 -25 -7 -5 -8 -11 -1 -19 6 -7 6 -17 1 -26 -14 -21 -12
-32 3 -24 7 5 7 1 -2 -10 -12 -14 -12 -19 -2 -26 11 -6 11 -8 0 -12 -12 -4
-11 -8 1 -23 8 -10 10 -16 4 -12 -7 4 -11 -2 -11 -18 -1 -16 4 -22 11 -18 6 4
5 -1 -3 -11 -13 -15 -13 -19 0 -27 8 -5 9 -9 3 -9 -6 0 -11 -16 -11 -35 0 -19
5 -35 11 -35 6 0 5 -4 -3 -9 -13 -8 -13 -12 0 -27 12 -15 12 -17 0 -9 -11 6
-13 4 -8 -7 3 -9 0 -21 -6 -27 -9 -9 -7 -10 8 -5 17 7 18 5 8 -7 -9 -11 -9
-19 -2 -26 8 -8 7 -13 -2 -18 -8 -6 -10 -4 -4 5 6 9 4 11 -4 6 -9 -6 -8 -12 4
-26 11 -12 13 -20 5 -25 -7 -5 -8 -11 -1 -19 6 -7 6 -17 1 -26 -14 -21 -12
-32 3 -24 7 5 7 1 -2 -10 -12 -14 -12 -19 -2 -26 11 -6 11 -8 0 -12 -12 -4
-11 -8 1 -23 8 -10 10 -16 4 -12 -7 4 -11 -2 -11 -18 0 -16 4 -22 11 -18 6 4
5 -1 -3 -11 -13 -15 -13 -19 0 -27 8 -5 9 -9 3 -9 -6 0 -11 -16 -11 -35 0 -19
5 -35 11 -35 6 0 5 -4 -3 -9 -13 -8 -13 -12 0 -27 12 -15 12 -17 0 -9 -11 6
-13 4 -8 -7 3 -9 0 -21 -6 -27 -9 -9 -7 -10 8 -5 17 7 18 5 8 -7 -9 -11 -9
-19 -2 -26 8 -8 7 -13 -2 -18 -8 -6 -10 -4 -4 5 6 9 4 11 -4 6 -9 -6 -8 -12 4
-26 11 -12 13 -20 5 -25 -7 -5 -8 -11 -1 -19 6 -7 6 -17 1 -26 -14 -21 -12
-32 3 -24 7 5 7 1 -2 -10 -12 -14 -12 -19 -2 -26 11 -6 11 -8 0 -12 -12 -4
-11 -8 1 -23 8 -10 10 -16 4 -12 -7 4 -11 -2 -11 -18 -1 -16 4 -22 11 -18 6 4
5 -1 -3 -11 -13 -15 -13 -19 0 -27 8 -5 9 -9 3 -9 -6 0 -11 -16 -11 -35 0 -19
5 -35 11 -35 6 0 5 -4 -3 -9 -13 -8 -13 -12 0 -27 12 -15 12 -17 0 -9 -11 6
-13 4 -8 -7 3 -9 0 -21 -6 -27 -9 -9 -7 -10 8 -5 17 7 18 5 8 -7 -9 -11 -9
-19 -2 -26 8 -8 7 -13 -2 -18 -8 -6 -10 -4 -4 5 6 9 4 11 -4 6 -9 -6 -8 -12 4
-26 11 -12 13 -20 5 -25 -7 -5 -8 -11 -1 -19 6 -7 6 -17 1 -26 -14 -21 -12
-32 3 -24 7 5 7 1 -2 -10 -12 -14 -12 -19 -2 -26 11 -6 11 -8 0 -12 -12 -4
-11 -8 1 -23 8 -10 10 -16 4 -12 -7 4 -11 -2 -11 -18 -1 -16 4 -22 11 -18 6 4
5 -1 -3 -11 -13 -15 -13 -19 0 -27 8 -5 9 -9 3 -9 -6 0 -11 -16 -11 -35 0 -19
5 -35 11 -35 6 0 5 -4 -3 -9 -13 -8 -13 -12 0 -27 12 -15 12 -17 0 -9 -11 6
-13 4 -8 -7 3 -9 0 -21 -6 -27 -9 -9 -7 -10 8 -5 17 7 18 5 8 -7 -9 -11 -9
-19 -2 -26 8 -8 7 -13 -2 -18 -8 -6 -10 -4 -4 5 6 9 4 11 -4 6 -9 -6 -8 -12 4
-26 11 -12 13 -20 5 -25 -7 -5 -8 -11 -1 -19 6 -7 6 -17 1 -26 -14 -21 -12
-32 2 -24 8 5 8 1 -1 -10 -12 -14 -12 -19 -2 -26 11 -6 11 -8 0 -12 -12 -4
-11 -8 1 -23 8 -10 10 -16 4 -12 -7 4 -11 -2 -11 -18 0 -16 4 -22 11 -18 6 4
5 -1 -3 -11 -13 -15 -13 -19 0 -27 8 -5 9 -9 3 -9 -6 0 -11 -16 -11 -35 0 -19
5 -35 11 -35 6 0 5 -4 -3 -9 -13 -8 -13 -12 0 -27 12 -15 12 -17 0 -9 -11 6
-13 4 -8 -7 3 -9 0 -21 -6 -27 -9 -9 -7 -10 8 -5 17 7 18 5 8 -7 -9 -11 -9
-19 -2 -26 8 -8 7 -13 -2 -18 -8 -6 -10 -4 -4 5 6 9 4 11 -4 6 -9 -6 -8 -12 4
-26 11 -12 13 -20 5 -25 -7 -5 -8 -11 -1 -19 6 -7 6 -17 1 -26 -14 -21 -12
-32 3 -24 7 5 7 1 -2 -10 -12 -14 -12 -19 -2 -26 11 -6 11 -8 0 -12 -12 -4
-11 -8 1 -23 8 -10 10 -16 4 -12 -7 4 -11 -2 -11 -18 -1 -16 4 -22 11 -18 6 4
5 -1 -3 -11 -13 -15 -13 -19 0 -27 8 -5 9 -9 3 -9 -6 0 -11 -16 -11 -35 0 -19
5 -35 11 -35 6 0 5 -4 -3 -9 -13 -8 -13 -12 0 -27 12 -15 12 -17 0 -9 -11 6
-13 4 -8 -7 3 -9 0 -21 -6 -27 -9 -9 -7 -10 8 -5 17 7 18 5 8 -7 -9 -11 -9
-19 -2 -26 8 -8 7 -13 -2 -18 -8 -6 -10 -4 -4 5 6 9 4 11 -4 6 -9 -6 -8 -12 4
-26 11 -12 13 -20 5 -25 -7 -5 -8 -11 -1 -19 6 -7 6 -17 1 -26 -14 -21 -12
-32 3 -24 7 5 7 1 -2 -10 -12 -14 -12 -19 -2 -26 11 -6 11 -8 0 -12 -12 -4
-11 -8 1 -23 8 -10 10 -16 4 -12 -7 4 -11 -2 -11 -18 -1 -16 4 -22 11 -18 6 4
5 -1 -3 -11 -13 -15 -13 -19 0 -27 8 -5 9 -9 3 -9 -6 0 -11 -16 -11 -35 0 -19
5 -35 11 -35 6 0 5 -4 -3 -9 -13 -8 -13 -12 0 -27 12 -15 12 -17 0 -9 -11 6
-13 4 -8 -7 3 -9 0 -21 -6 -27 -9 -9 -7 -10 8 -5 17 7 18 5 8 -7 -9 -11 -9
-19 -2 -26 8 -8 7 -13 -2 -18 -8 -6 -10 -4 -4 5 6 9 4 11 -4 6 -9 -6 -8 -12 4
-26 11 -12 13 -20 5 -25 -7 -5 -8 -11 -1 -19 6 -7 6 -17 1 -26 -14 -21 -12
-32 2 -24 8 5 8 1 -1 -10 -12 -14 -12 -19 -2 -26 11 -6 11 -8 0 -12 -11 -4
-12 -8 -2 -20 10 -11 10 -17 0 -27 -9 -9 -9 -14 3 -21 14 -9 6 -15 -15 -10 -5
1 -2 -7 8 -17 15 -17 15 -21 1 -35 -12 -12 -13 -17 -3 -23 8 -6 10 -4 4 5 -5
9 -4 11 4 6 8 -6 9 -12 2 -20 -7 -9 -7 -16 1 -24 8 -8 8 -15 0 -25 -9 -10 -8
-17 1 -27 7 -8 7 -10 1 -7 -7 4 -11 -3 -11 -18 -1 -15 4 -22 11 -18 6 3 6 0
-2 -8 -16 -17 -16 -43 1 -33 9 6 9 5 0 -7 -9 -11 -9 -19 -2 -26 8 -8 8 -13 0
-17 -6 -4 -11 -14 -11 -22 0 -10 5 -12 12 -8 10 6 10 5 1 -7 -10 -12 -10 -18
0 -29 7 -8 7 -10 1 -7 -7 4 -11 -3 -11 -18 -1 -15 4 -22 11 -18 6 3 6 0 -2 -8
-16 -17 -16 -43 1 -33 9 6 9 5 0 -7 -10 -12 -10 -18 0 -29 10 -10 8 -12 -7 -6
-18 6 -18 5 -1 -20 9 -15 13 -24 7 -20 -5 3 -9 -5 -9 -19 -1 -16 4 -22 11 -18
6 4 6 0 -2 -9 -7 -8 -11 -33 -9 -57 2 -23 0 -44 -5 -47 -5 -3 -2 -17 7 -31 10
-14 12 -22 6 -19 -15 10 -14 -17 2 -33 10 -11 10 -13 0 -7 -17 9 -17 -16 0
-33 10 -11 10 -13 0 -7 -16 9 -17 -16 -2 -31 8 -8 8 -13 0 -17 -16 -10 -14
-39 2 -30 9 6 9 4 -1 -7 -16 -17 -16 -42 0 -33 11 6 11 4 1 -7 -16 -16 -17
-43 -2 -33 6 3 4 -4 -5 -18 -14 -22 -14 -26 1 -48 16 -22 16 -23 0 -17 -15 6
-16 3 -7 -13 6 -11 8 -20 4 -20 -3 0 -2 -6 5 -13 8 -10 7 -17 -1 -25 -9 -9 -9
-12 2 -12 11 0 11 -3 2 -12 -13 -13 -16 -32 -4 -24 4 2 8 -4 8 -15 0 -10 -4
-19 -9 -19 -5 0 -5 -6 1 -13 7 -8 7 -18 2 -27 -5 -9 -5 -19 2 -27 7 -9 7 -13
-1 -13 -8 0 -7 -6 3 -16 17 -17 20 -25 9 -23 -19 3 -27 -2 -15 -9 7 -5 14 -18
17 -31 2 -12 0 -19 -6 -16 -5 4 -6 11 -3 17 4 7 2 8 -4 4 -9 -5 -8 -15 4 -38
9 -16 11 -27 6 -24 -15 9 -20 -16 -8 -37 8 -13 8 -20 -4 -27 -12 -8 -12 -10 5
-10 17 0 17 -2 5 -10 -8 -5 -10 -10 -4 -10 6 0 11 -7 11 -15 0 -8 -4 -12 -8
-9 -4 2 -10 0 -14 -6 -3 -5 1 -10 9 -10 9 0 16 -5 16 -11 0 -5 -4 -8 -8 -5 -5
3 -9 -1 -9 -9 0 -8 4 -12 9 -9 15 10 8 -14 -9 -32 -16 -15 -16 -17 -2 -12 13
5 16 1 14 -21 -1 -15 -5 -33 -9 -39 -3 -6 -2 -14 4 -17 8 -5 8 -11 1 -19 -6
-7 -7 -16 -3 -20 4 -4 8 -21 8 -37 1 -16 2 -30 4 -31 6 -9 4 -60 -3 -65 -5 -3
-3 -9 4 -13 10 -7 10 -11 0 -24 -10 -12 -10 -16 -2 -16 7 0 10 -4 7 -9 -4 -5
0 -12 6 -14 9 -4 8 -6 -2 -6 -9 -1 -16 -11 -17 -23 -1 -11 -7 -24 -14 -29 -8
-4 -6 -9 8 -13 17 -5 22 -18 25 -64 1 -7 7 -11 14 -8 8 3 11 -2 9 -15 -2 -10
0 -19 6 -19 5 0 8 -3 8 -7 -4 -23 2 -54 9 -49 8 5 11 -12 14 -71 1 -18 6 -33
11 -33 5 0 7 -9 4 -20 -3 -11 -1 -20 5 -20 5 0 6 -4 3 -10 -3 -5 -1 -10 6 -10
6 0 9 -8 6 -20 -3 -11 0 -20 6 -20 7 0 5 -5 -3 -10 -12 -8 -12 -10 -1 -10 8 0
11 -3 8 -7 -4 -3 1 -12 11 -20 9 -8 11 -12 5 -8 -9 4 -11 1 -7 -9 3 -9 11 -16
16 -16 6 0 4 -8 -3 -17 -10 -11 -10 -14 -1 -9 8 5 12 0 12 -13 0 -12 5 -21 11
-21 6 0 9 -9 6 -20 -3 -11 -2 -20 3 -20 4 0 11 -7 14 -16 6 -15 4 -15 -11 -3
-14 11 -13 9 2 -13 11 -15 25 -28 30 -28 6 0 3 -5 -5 -10 -10 -6 -11 -10 -2
-10 6 0 12 -12 12 -26 0 -14 4 -23 9 -20 5 3 12 -1 15 -10 4 -10 2 -13 -7 -9
-6 4 -4 0 6 -8 12 -10 15 -17 7 -22 -7 -4 -4 -13 9 -24 16 -14 18 -20 8 -31
-10 -10 -9 -11 2 -5 11 6 13 4 8 -8 -3 -10 -2 -17 4 -17 6 0 8 -4 5 -9 -3 -5
0 -11 7 -14 8 -3 13 -16 12 -28 -1 -13 5 -30 12 -38 8 -7 12 -20 9 -28 -4 -8
-1 -11 5 -7 7 4 9 -1 4 -15 -5 -17 -3 -20 12 -14 15 6 16 4 5 -9 -10 -12 -10
-17 1 -27 8 -6 18 -7 23 -3 4 4 2 -1 -5 -10 -9 -12 -10 -18 -2 -18 6 0 10 -3
10 -7 -4 -23 2 -43 10 -38 6 3 10 -3 10 -12 -1 -32 7 -54 22 -64 8 -5 10 -9 6
-9 -4 0 -3 -8 2 -18 7 -13 6 -23 -2 -31 -9 -10 -8 -11 7 -5 13 5 17 4 12 -4
-4 -7 -2 -12 3 -12 6 0 11 -5 11 -11 0 -5 -4 -8 -9 -5 -5 4 -4 -5 2 -18 7 -13
16 -22 22 -18 5 3 4 -2 -4 -11 -12 -15 -11 -17 2 -17 11 0 14 -5 10 -17 -4 -9
-2 -14 3 -10 8 5 14 -14 17 -60 0 -7 4 -10 9 -7 4 3 8 -6 8 -20 0 -13 6 -31
13 -38 8 -7 12 -18 10 -25 -2 -6 1 -14 6 -18 6 -3 11 -15 11 -26 0 -24 24 -51
36 -41 5 4 2 -1 -6 -11 -11 -15 -11 -20 -1 -26 7 -5 12 -11 12 -15 -3 -23 0
-30 7 -19 5 7 8 -5 8 -29 0 -26 6 -45 17 -53 10 -7 15 -19 11 -29 -4 -9 -1
-16 6 -16 7 0 10 -8 7 -20 -3 -12 0 -20 7 -20 12 0 16 -12 17 -53 0 -9 4 -15
10 -12 5 4 9 -3 9 -14 0 -12 5 -21 11 -21 8 0 7 -5 -1 -15 -7 -9 -10 -18 -6
-22 3 -3 6 -1 6 6 0 9 4 9 14 -1 10 -9 11 -15 2 -20 -8 -6 -8 -8 2 -8 6 0 12
-7 12 -16 0 -8 4 -13 9 -9 6 3 8 -4 6 -15 -2 -12 1 -20 9 -20 8 0 12 -11 11
-29 -1 -21 2 -28 12 -24 8 3 13 -2 13 -15 0 -12 5 -24 10 -27 8 -5 8 -11 0
-20 -8 -9 -6 -14 6 -19 9 -4 14 -13 10 -21 -3 -8 -1 -15 4 -15 6 0 10 -7 10
-15 0 -8 6 -15 13 -15 8 0 7 -4 -3 -10 -11 -7 -11 -10 -2 -10 7 0 10 -4 7 -10
-3 -5 1 -10 9 -10 9 0 15 -3 15 -7 -3 -20 2 -34 11 -28 6 3 7 -1 4 -9 -3 -9
-1 -16 4 -16 6 0 9 -9 7 -20 -2 -11 1 -23 7 -26 7 -5 8 -2 3 6 -5 9 -4 11 4 6
7 -5 9 -16 5 -28 -4 -14 -2 -18 5 -14 6 4 11 0 11 -8 0 -9 6 -16 13 -16 8 0 7
-4 -3 -10 -10 -6 -11 -10 -2 -10 6 0 12 -9 12 -21 0 -13 4 -18 12 -13 10 6 10
5 2 -7 -9 -11 -9 -17 1 -26 7 -6 16 -9 21 -5 4 4 4 2 0 -5 -3 -6 -2 -14 3 -17
5 -4 8 -14 7 -24 -2 -9 1 -19 5 -22 5 -3 10 -16 12 -27 2 -12 12 -32 23 -44
10 -11 19 -24 19 -28 0 -3 4 -5 9 -3 5 2 4 -3 -3 -12 -14 -17 2 -32 22 -20 8
5 8 2 -2 -9 -9 -12 -10 -17 -2 -17 7 0 9 -4 6 -10 -3 -5 1 -10 9 -10 9 0 16
-5 16 -11 0 -5 -6 -7 -12 -3 -9 6 -9 3 1 -9 7 -9 11 -24 7 -32 -3 -9 -2 -13 3
-10 16 9 25 -16 10 -27 -11 -8 -10 -9 3 -4 11 3 19 -2 23 -15 4 -10 10 -17 15
-14 5 3 12 0 16 -6 4 -7 3 -9 -3 -6 -6 4 -13 0 -17 -8 -3 -8 -1 -15 5 -15 6 0
8 -7 5 -16 -5 -14 -4 -15 9 -4 13 11 14 10 9 -4 -4 -10 -1 -16 7 -16 7 0 10
-3 6 -6 -3 -4 1 -13 9 -21 8 -8 12 -19 9 -24 -4 -5 0 -9 7 -9 9 0 13 -10 12
-30 -1 -17 3 -28 9 -27 6 1 16 -8 22 -20 5 -13 14 -23 20 -23 5 0 3 -5 -5 -10
-13 -8 -13 -10 2 -10 11 0 15 -5 12 -15 -4 -8 -1 -15 6 -15 10 0 9 -4 0 -16
-8 -8 -9 -14 -4 -13 17 3 37 -1 31 -7 -3 -3 3 -14 14 -25 11 -11 17 -24 14
-29 -4 -6 -1 -10 5 -10 6 0 8 -5 5 -10 -3 -6 1 -13 10 -16 13 -6 14 -8 3 -15
-10 -7 -8 -9 6 -9 13 0 16 -5 12 -17 -4 -10 -4 -14 0 -10 4 4 13 2 21 -4 11
-10 11 -15 1 -27 -7 -9 -8 -13 -3 -10 6 3 16 0 23 -8 9 -10 9 -14 1 -14 -6 0
2 -12 18 -27 16 -16 32 -36 36 -45 3 -10 11 -18 17 -18 6 0 8 -4 5 -10 -3 -5
-1 -10 5 -10 6 0 9 -4 6 -9 -3 -4 2 -17 10 -27 9 -10 12 -13 8 -5 -4 9 -3 12
4 7 6 -3 9 -15 7 -26 -2 -12 0 -18 6 -15 5 4 9 -1 9 -9 0 -9 6 -16 13 -16 8 0
7 -4 -3 -10 -11 -7 -11 -10 -2 -10 7 0 12 -8 10 -17 -2 -10 3 -17 10 -15 7 1
18 -9 24 -23 6 -14 18 -25 27 -25 14 0 14 -2 1 -10 -12 -8 -12 -10 5 -10 17 0
17 -2 5 -10 -10 -6 -11 -10 -2 -10 6 0 12 -7 12 -15 0 -8 5 -15 11 -15 6 0 8
-7 5 -16 -5 -13 -3 -14 7 -6 10 8 13 6 14 -11 1 -12 7 -23 13 -25 5 -2 8 -7 5
-12 -3 -5 2 -16 11 -24 11 -12 12 -16 2 -16 -10 0 -10 -3 2 -9 8 -6 18 -7 24
-4 5 3 6 1 3 -5 -10 -15 3 -42 20 -42 8 0 11 -4 8 -10 -3 -5 -1 -10 4 -10 6 0
10 -3 10 -7 -4 -25 2 -43 13 -37 8 5 9 2 5 -10 -4 -9 -3 -15 2 -12 5 3 15 -2
22 -11 10 -12 10 -14 2 -9 -7 4 -13 2 -13 -3 0 -6 5 -11 11 -11 18 0 36 -24
34 -47 -1 -14 10 -33 27 -48 16 -14 26 -31 22 -37 -4 -6 -3 -8 2 -5 6 3 16 -3
23 -15 10 -16 10 -19 -1 -12 -10 6 -10 4 1 -9 7 -9 18 -14 25 -10 6 4 5 -1 -3
-10 -11 -14 -11 -18 3 -23 9 -3 13 -10 10 -15 -3 -5 0 -8 8 -7 7 2 12 -3 10
-10 -1 -8 2 -11 8 -7 5 3 10 1 10 -5 0 -6 5 -8 12 -4 8 5 9 0 6 -14 -4 -12 -2
-22 3 -22 5 0 12 -7 16 -16 3 -9 17 -27 30 -40 13 -13 21 -29 18 -34 -3 -6 -1
-10 4 -10 6 0 11 -7 11 -15 0 -8 6 -15 13 -15 9 0 8 -3 -2 -9 -11 -7 -9 -10 7
-16 12 -3 21 -9 21 -13 -3 -20 2 -32 14 -29 6 1 11 -4 10 -10 -2 -7 2 -13 8
-13 5 0 7 -4 4 -10 -5 -9 7 -14 26 -12 4 1 5 -9 2 -21 -4 -18 -3 -19 6 -7 9
12 11 11 11 -8 0 -13 4 -20 10 -17 6 3 10 -3 10 -15 0 -12 9 -24 23 -30 12 -5
16 -9 8 -9 -10 -1 -8 -6 6 -19 20 -18 38 -51 34 -65 -1 -5 3 -6 9 -2 5 3 14
-5 19 -19 6 -13 27 -42 47 -63 20 -21 36 -39 36 -40 -7 -11 0 -23 9 -17 8 4 8
0 0 -15 -10 -18 -9 -20 5 -14 12 4 15 3 10 -5 -4 -7 -2 -12 3 -12 6 0 11 -7
11 -17 0 -9 3 -14 6 -10 9 9 34 -19 34 -37 0 -9 5 -16 11 -16 5 0 7 -4 4 -10
-3 -6 -1 -10 5 -10 15 0 41 -26 33 -34 -4 -3 -1 -6 5 -6 6 0 14 -9 17 -20 4
-12 11 -17 18 -13 7 4 5 -2 -3 -12 -9 -11 -10 -16 -3 -11 8 4 13 1 13 -9 0 -9
4 -13 10 -10 5 3 10 -3 10 -14 0 -15 4 -19 17 -14 12 5 15 2 10 -10 -3 -9 -3
-16 1 -16 4 1 14 1 22 0 13 -1 13 -2 0 -11 -10 -6 -11 -10 -2 -10 6 0 12 -5
12 -11 0 -5 -5 -7 -12 -3 -7 4 -8 3 -4 -4 4 -7 14 -12 22 -12 8 0 12 -4 9 -10
-3 -5 1 -10 10 -10 9 0 14 -4 11 -8 -3 -5 4 -14 14 -22 10 -8 17 -17 14 -22
-3 -4 0 -8 6 -8 6 0 8 -4 5 -10 -3 -5 2 -10 12 -10 15 0 16 -2 3 -10 -12 -8
-12 -10 5 -10 17 0 17 -2 5 -10 -13 -9 -13 -10 0 -11 8 -1 19 -1 23 0 5 1 6
-3 2 -9 -3 -5 -1 -10 4 -10 6 0 11 -7 11 -15 0 -8 5 -15 11 -15 6 0 9 -7 5
-15 -3 -9 0 -15 9 -15 8 0 14 -4 12 -8 -1 -5 13 -23 31 -41 34 -34 40 -46 20
-36 -7 4 -5 0 4 -8 10 -8 15 -17 11 -20 -3 -4 -1 -7 6 -7 7 0 9 -5 6 -10 -4
-6 -3 -10 2 -9 4 1 15 1 23 0 13 -1 13 -2 0 -11 -11 -7 -12 -10 -2 -10 20 0
45 -29 38 -45 -3 -9 0 -12 10 -8 9 3 14 -2 14 -17 0 -11 3 -19 8 -17 9 6 52
-39 45 -47 -4 -3 -1 -6 6 -6 8 0 11 -6 7 -16 -3 -8 -2 -12 4 -9 6 3 10 1 10
-5 0 -6 5 -8 13 -4 9 6 9 5 0 -8 -15 -18 -7 -29 15 -21 10 4 13 2 8 -6 -5 -7
6 -24 26 -43 18 -17 27 -28 21 -24 -9 5 -11 2 -7 -8 3 -9 13 -16 21 -16 9 0
13 -6 10 -14 -7 -17 20 -30 27 -13 2 7 5 2 5 -10 1 -13 6 -23 11 -23 6 0 10
-4 10 -10 0 -5 17 -26 38 -46 20 -21 27 -29 15 -19 -13 10 -23 13 -23 7 0 -6
13 -16 29 -23 19 -8 27 -18 23 -28 -3 -8 -1 -12 5 -8 13 8 26 -20 16 -35 -3
-7 -1 -8 5 -4 7 4 12 2 12 -3 0 -6 7 -11 15 -11 8 0 14 -6 12 -12 -1 -7 3 -12
8 -11 11 1 30 -17 33 -32 6 -31 14 -45 23 -40 5 4 9 0 9 -8 0 -8 8 -21 18 -28
16 -13 16 -13 2 5 -14 18 -14 18 7 6 12 -8 19 -18 17 -22 -3 -4 0 -8 5 -8 6 0
11 -7 11 -15 0 -8 5 -15 11 -15 5 0 7 -5 3 -12 -5 -8 -2 -9 10 -5 14 5 15 3 6
-12 -8 -17 -6 -19 15 -17 13 2 24 0 23 -3 -1 -17 15 -50 23 -45 5 3 9 0 9 -5
0 -25 78 -103 93 -94 7 4 6 0 -2 -10 -11 -14 -11 -17 0 -17 18 -1 63 -41 72
-63 3 -9 11 -17 17 -17 6 0 8 -4 5 -10 -3 -5 0 -10 8 -10 8 0 19 -10 26 -22 6
-13 9 -15 6 -5 -3 10 -1 15 5 12 6 -3 10 -13 10 -21 0 -8 5 -12 10 -9 6 4 10
3 9 -2 -3 -20 2 -34 11 -28 5 3 10 -1 10 -9 0 -15 12 -21 33 -17 5 1 6 -3 2
-9 -3 -5 -1 -10 5 -10 7 0 9 -7 6 -16 -3 -8 -2 -13 3 -10 5 3 11 -1 15 -9 3
-8 17 -20 31 -27 14 -6 25 -17 25 -25 0 -7 3 -12 8 -12 22 4 32 -3 32 -22 0
-11 5 -17 10 -14 6 3 10 -1 10 -9 0 -15 12 -21 33 -17 5 1 6 -3 3 -8 -10 -16
5 -41 25 -41 10 0 19 -6 19 -14 0 -7 8 -20 18 -27 14 -11 15 -11 5 1 -7 8 -13
19 -13 25 0 5 8 -2 18 -18 10 -15 22 -24 27 -20 4 5 6 -2 3 -14 -5 -16 -2 -20
10 -16 11 5 14 2 9 -10 -4 -11 -2 -14 9 -10 7 3 14 0 14 -7 0 -7 7 -10 16 -6
8 3 13 2 10 -3 -3 -5 1 -12 10 -15 9 -4 14 -13 10 -22 -3 -8 -2 -13 3 -9 5 3
16 -1 24 -9 8 -8 18 -12 22 -8 4 4 5 0 3 -8 -2 -8 3 -14 9 -13 7 2 12 0 12 -5
-1 -4 -1 -16 0 -27 1 -14 4 -16 9 -7 6 9 12 6 20 -13 7 -15 20 -25 32 -25 11
0 20 -5 20 -11 0 -14 26 -39 40 -39 6 0 9 -3 7 -8 -5 -6 11 -26 23 -29 3 -1
16 -6 30 -12 22 -8 22 -10 5 -11 -16 -1 -15 -4 8 -12 15 -5 27 -16 27 -24 0
-8 6 -11 17 -7 13 5 15 2 10 -11 -4 -10 -3 -15 3 -11 6 3 10 0 10 -7 0 -10 2
-10 9 1 7 11 10 9 16 -8 3 -12 11 -19 16 -16 5 4 9 0 9 -8 0 -8 10 -22 22 -33
14 -13 19 -14 14 -4 -4 8 -1 7 7 -3 11 -14 16 -15 20 -5 4 9 6 8 6 -3 1 -9 9
-23 19 -30 16 -13 16 -13 2 6 -14 19 -14 19 3 6 14 -11 15 -17 5 -28 -6 -8 -7
-13 -2 -12 29 7 110 -62 97 -84 -5 -8 -2 -8 9 1 14 11 17 10 23 -7 3 -10 12
-25 21 -32 12 -10 13 -9 7 7 -6 17 -5 17 10 5 9 -7 14 -17 11 -22 -3 -5 2 -6
11 -3 11 5 18 0 22 -15 3 -11 10 -21 16 -21 5 0 16 -8 24 -17 9 -11 12 -12 7
-3 -4 8 13 -6 38 -32 24 -27 51 -48 60 -48 9 0 19 -7 22 -16 3 -8 10 -13 15
-9 6 3 8 -4 6 -15 -2 -12 0 -18 6 -14 6 3 19 -3 29 -14 14 -15 16 -22 7 -26
-7 -3 -1 -3 13 0 27 5 75 -29 65 -46 -3 -5 0 -12 6 -16 8 -4 9 -3 5 4 -4 7 -2
12 3 12 6 0 11 -7 11 -16 0 -8 5 -12 10 -9 6 3 10 1 10 -5 0 -7 7 -9 16 -6 8
3 12 2 9 -4 -3 -6 1 -10 9 -10 8 0 18 -5 22 -12 4 -7 3 -8 -4 -4 -7 4 -12 3
-12 -2 0 -6 11 -13 25 -16 18 -5 23 -11 18 -24 -6 -15 -5 -15 10 -3 11 9 17
10 17 2 0 -6 6 -11 14 -11 7 0 20 -8 27 -17 12 -14 12 -16 0 -8 -10 5 -12 4
-7 -3 4 -7 14 -12 21 -12 8 0 19 -9 26 -21 7 -14 17 -19 30 -16 11 3 16 1 13
-4 -8 -14 15 -39 36 -39 10 0 21 -7 24 -16 6 -15 4 -15 -11 -3 -16 11 -16 11
-5 -1 7 -8 18 -15 25 -15 7 -1 11 -7 9 -15 -3 -11 0 -11 14 1 12 9 15 9 10 1
-6 -11 4 -16 20 -9 3 1 12 -9 19 -23 9 -15 15 -19 15 -10 0 9 6 5 15 -10 8
-14 14 -21 15 -16 0 5 6 3 13 -3 8 -6 18 -7 22 -3 5 4 5 1 1 -5 -4 -8 -2 -13
6 -13 9 0 9 -3 -2 -10 -12 -8 -10 -10 8 -10 13 0 21 -4 18 -9 -7 -11 22 -23
35 -15 5 3 9 -2 9 -10 0 -8 5 -18 12 -22 7 -4 8 -3 4 4 -4 7 -3 12 3 12 5 0
13 -9 16 -20 3 -11 11 -20 16 -20 5 0 9 -7 9 -15 0 -8 4 -15 10 -15 5 0 6 8 3
17 -4 10 7 3 24 -14 17 -17 34 -29 37 -26 3 4 6 1 6 -6 0 -18 26 -41 45 -41 9
0 13 -4 10 -10 -4 -6 1 -7 11 -3 13 5 15 3 9 -7 -5 -9 -4 -11 4 -6 6 4 18 0
27 -8 12 -12 12 -16 2 -17 -7 -1 -2 -4 12 -8 14 -4 24 -13 23 -19 -2 -6 4 -9
12 -6 8 4 15 1 15 -5 0 -6 5 -11 11 -11 6 0 23 -13 39 -29 18 -20 31 -27 38
-20 7 5 10 6 7 3 -3 -4 4 -15 16 -25 15 -12 16 -19 7 -23 -7 -3 -2 -3 11 0 19
5 23 3 18 -9 -4 -11 -1 -14 7 -11 7 3 16 -2 19 -10 4 -9 12 -16 19 -16 9 0 8
3 -2 10 -11 7 -12 10 -2 10 8 0 16 -9 19 -19 3 -12 12 -18 23 -16 14 3 17 -1
13 -12 -5 -12 -2 -15 10 -10 15 6 21 -3 18 -25 0 -3 7 -5 16 -4 21 3 43 -15
35 -28 -3 -5 2 -7 11 -3 13 5 17 1 17 -15 0 -12 3 -18 7 -15 3 4 13 1 21 -6
13 -9 14 -9 8 0 -5 9 -2 11 8 7 15 -6 20 -17 17 -36 0 -4 7 -4 17 -1 9 3 14 2
10 -2 -13 -14 35 -33 51 -21 12 9 12 8 3 -10 -10 -19 -9 -21 12 -19 16 2 28
-5 37 -21 7 -13 21 -24 31 -24 10 0 18 -4 18 -10 0 -5 5 -10 11 -10 7 0 21
-10 33 -23 11 -12 30 -21 41 -20 11 2 14 0 8 -3 -16 -7 8 -34 30 -34 8 0 18
-8 21 -17 6 -15 8 -15 16 -3 8 12 10 11 11 -5 1 -11 1 -24 0 -28 -1 -4 7 -4
16 2 18 9 49 -10 36 -23 -6 -6 12 -10 30 -7 4 0 7 -4 7 -9 0 -6 7 -10 16 -10
10 0 14 -6 11 -15 -5 -11 -1 -12 18 -5 19 7 23 6 18 -5 -3 -10 1 -15 12 -15
20 0 47 -25 37 -35 -4 -5 -1 -5 6 -1 7 4 10 11 7 16 -3 5 -1 12 5 15 6 4 10 3
9 -2 -4 -21 2 -33 16 -33 9 0 12 -6 9 -15 -4 -10 -2 -13 7 -10 8 3 27 -6 43
-20 27 -23 40 -29 58 -26 4 0 4 -7 1 -17 -6 -15 -5 -16 12 -2 17 14 18 14 5
-10 -7 -14 -9 -22 -5 -18 5 4 15 2 23 -5 13 -10 15 -9 8 3 -4 8 1 5 12 -7 11
-12 22 -19 26 -16 3 4 6 1 6 -7 0 -10 3 -10 15 0 9 8 15 8 15 2 0 -19 32 -43
48 -37 9 3 13 3 10 -1 -12 -11 22 -36 39 -29 10 3 15 3 11 0 -7 -7 27 -45 41
-45 17 0 61 -27 54 -33 -3 -4 4 -7 17 -7 13 0 21 -3 17 -6 -9 -10 20 -35 43
-37 11 -1 20 -5 20 -9 0 -4 7 -8 16 -8 9 0 12 -5 8 -12 -5 -8 -1 -8 12 2 10 8
16 10 12 6 -5 -5 1 -16 12 -23 12 -8 17 -20 13 -26 -4 -7 0 -6 10 2 14 11 20
11 32 1 13 -11 13 -15 3 -22 -9 -6 -5 -7 10 -3 13 4 22 2 22 -5 0 -6 5 -8 10
-5 6 3 10 -2 10 -11 0 -10 3 -14 7 -11 3 4 13 1 21 -6 9 -6 13 -7 9 -1 -3 6 0
11 8 11 7 0 12 -8 10 -19 -3 -15 -1 -16 17 -7 15 8 19 8 14 0 -4 -6 0 -11 9
-11 9 0 23 -7 32 -15 8 -8 19 -13 24 -10 5 4 9 -1 9 -10 0 -9 5 -13 10 -10 6
3 10 1 10 -5 0 -6 5 -8 10 -5 6 3 10 0 10 -8 0 -21 42 -37 65 -25 14 8 16 8
10 -2 -6 -10 -4 -12 8 -7 9 3 16 3 16 -1 -3 -21 3 -31 16 -26 8 4 17 -1 21
-10 3 -9 10 -13 15 -10 5 3 9 -1 9 -8 0 -9 3 -9 10 2 8 13 10 12 10 -4 0 -11
3 -16 7 -12 4 3 13 -4 20 -16 7 -13 12 -17 13 -9 0 8 8 4 20 -10 10 -13 19
-18 20 -12 0 15 80 -24 80 -39 0 -5 4 -6 10 -3 6 3 10 1 10 -5 0 -6 5 -8 10
-5 6 3 31 -7 56 -24 25 -17 52 -31 60 -31 10 0 12 -5 8 -12 -6 -10 -4 -10 8 0
13 10 18 10 24 1 5 -8 3 -9 -7 -4 -12 8 -12 6 0 -8 15 -19 36 -23 25 -5 -4 7
-3 8 4 4 7 -4 12 -15 13 -24 0 -10 3 -12 6 -5 3 9 10 7 25 -7 11 -10 27 -16
36 -13 11 5 13 3 7 -7 -5 -8 -4 -11 3 -6 6 4 20 -1 32 -11 11 -10 24 -18 28
-18 4 0 13 -4 21 -9 10 -7 12 -5 7 5 -4 8 0 5 8 -5 9 -11 16 -16 16 -10 0 5 5
1 11 -9 8 -14 14 -16 25 -6 14 11 15 10 18 -13 0 -7 6 -13 11 -13 6 0 16 -4
24 -9 9 -6 12 -5 8 1 -3 5 0 10 7 10 8 0 12 -5 10 -11 -2 -6 5 -17 17 -25 20
-12 21 -11 15 4 -5 15 -4 16 8 6 8 -7 21 -9 27 -5 8 4 9 3 5 -4 -5 -8 2 -12
20 -12 24 0 25 -2 13 -17 -10 -12 -11 -15 -1 -9 7 4 20 2 29 -6 11 -8 14 -8
10 -1 -5 8 -1 11 12 10 15 -1 17 -4 9 -14 -8 -11 -7 -12 7 -7 13 5 16 4 11 -4
-4 -7 -1 -12 8 -12 8 0 17 6 19 13 3 6 6 2 6 -10 1 -15 6 -20 20 -16 10 2 25
-3 35 -12 12 -12 16 -13 16 -3 0 10 3 9 10 -2 9 -13 10 -13 10 0 1 11 4 9 13
-5 7 -12 21 -20 35 -19 13 1 22 -4 22 -13 0 -8 5 -11 10 -8 6 3 10 0 10 -7 0
-11 2 -10 9 0 7 11 9 11 14 -2 4 -9 18 -16 32 -16 14 0 25 -5 25 -11 0 -5 4
-8 9 -4 5 3 16 -2 24 -10 18 -17 31 -20 21 -4 -4 8 0 8 15 0 11 -7 21 -14 21
-17 0 -3 -5 -2 -12 2 -7 4 -8 3 -4 -5 6 -8 11 -9 20 -1 10 7 20 3 39 -15 17
-18 28 -22 32 -14 6 8 10 7 16 -2 6 -10 9 -10 9 -2 0 7 7 10 16 6 11 -4 12 -8
4 -13 -8 -5 -4 -9 9 -13 14 -3 19 -1 14 6 -4 7 5 4 19 -5 18 -12 29 -14 33 -7
5 7 11 6 21 -2 7 -6 11 -16 7 -22 -4 -6 0 -8 10 -4 10 3 17 2 17 -3 0 -5 7 -6
17 -3 11 4 14 3 9 -5 -9 -16 7 -15 22 0 9 9 12 9 12 -1 0 -7 4 -9 10 -6 6 4 7
-1 3 -12 -6 -15 -4 -16 8 -6 12 10 20 9 36 -2 12 -8 29 -12 38 -9 9 4 20 3 24
-2 3 -5 21 -18 40 -28 24 -13 32 -15 27 -5 -4 8 0 5 10 -6 13 -16 16 -17 11
-3 -3 10 -1 20 5 24 7 5 8 2 3 -6 -6 -10 -4 -12 9 -7 10 4 15 3 11 -3 -3 -5 4
-14 16 -20 15 -8 19 -9 15 -1 -13 21 13 11 30 -11 9 -13 14 -16 11 -7 -3 9 1
16 9 16 9 0 13 -7 9 -16 -3 -11 0 -10 10 3 14 19 21 11 16 -18 -1 -5 5 -4 13
4 11 8 16 9 16 1 0 -6 5 -11 11 -11 5 0 7 6 3 13 -5 8 -2 8 9 -2 14 -11 20
-11 35 0 15 13 16 12 4 -3 -9 -11 -10 -18 -2 -23 5 -3 10 0 10 7 0 9 3 9 10
-2 9 -13 10 -13 10 0 0 12 2 12 9 2 4 -8 11 -13 15 -13 20 3 26 0 20 -11 -6
-10 -4 -10 7 -1 15 15 33 18 25 5 -3 -5 1 -9 9 -9 8 0 12 4 10 8 -3 3 4 9 16
12 17 5 18 3 7 -11 -7 -9 -9 -14 -4 -10 5 4 18 2 30 -4 18 -10 19 -9 9 3 -10
12 -8 15 7 15 10 0 16 -4 13 -9 -3 -6 8 -8 25 -5 21 3 33 0 37 -10 3 -8 8 -12
12 -9 3 4 13 1 21 -6 10 -8 13 -8 9 -1 -4 7 0 14 8 17 9 4 12 1 9 -7 -3 -7 2
-13 10 -13 8 0 13 4 10 9 -3 4 0 8 5 8 6 0 11 -6 11 -14 0 -8 7 -17 16 -20 8
-3 13 -2 10 3 -3 5 1 11 9 15 8 3 17 0 21 -6 5 -7 2 -8 -7 -3 -8 5 -11 4 -6 0
9 -11 68 -14 62 -4 -3 4 2 10 11 13 8 3 13 2 10 -3 -3 -5 1 -12 10 -15 8 -3
13 -2 10 3 -3 5 1 11 9 15 8 3 17 1 20 -3 2 -5 14 -11 26 -14 16 -4 19 -2 14
11 -5 13 -1 12 16 -4 12 -10 19 -13 14 -5 -6 11 -4 13 10 7 16 -6 16 -4 4 11
-13 15 -12 15 6 6 15 -9 22 -8 33 5 7 10 11 12 8 5 -4 -6 -2 -14 4 -18 5 -3
10 -2 10 4 0 6 6 8 14 5 8 -3 17 0 21 6 5 8 10 8 20 0 10 -8 13 -6 11 7 -1 18
2 18 48 5 11 -3 17 -1 13 5 -3 5 0 10 8 10 8 0 12 -4 8 -9 -3 -6 10 -2 28 8
31 15 33 15 20 1 -9 -12 -10 -17 -2 -17 6 0 15 8 18 17 6 15 7 15 14 -3 7 -17
8 -17 8 -1 1 14 5 16 19 8 19 -10 57 10 44 24 -4 4 3 3 15 -4 16 -8 23 -8 26
2 3 6 6 3 7 -8 1 -18 2 -18 10 3 9 20 12 21 32 11 21 -11 22 -11 9 5 -12 14
-12 16 2 10 10 -3 17 1 20 13 4 16 5 16 6 1 1 -18 21 -26 21 -8 0 5 7 6 17 3
11 -4 14 -3 9 5 -5 8 0 11 16 9 13 -1 22 3 21 10 -2 8 6 9 29 3 33 -10 52 -5
42 12 -4 6 1 6 14 -1 16 -8 21 -7 26 5 4 10 2 13 -7 8 -7 -4 -9 -3 -4 2 5 5
13 10 18 10 5 1 14 2 20 3 5 0 7 7 3 14 -5 8 -3 8 9 -2 9 -7 14 -18 11 -25 -3
-6 0 -4 8 5 7 9 19 14 27 11 9 -3 11 0 6 8 -6 9 -3 9 13 1 18 -9 23 -8 32 9 6
11 15 20 21 20 6 0 7 -6 3 -12 -5 -10 -4 -10 6 -1 7 6 19 9 28 5 11 -4 14 -1
9 11 -4 12 -2 14 10 10 13 -5 15 -2 10 11 -5 12 -3 15 5 10 7 -4 23 -9 36 -10
23 -3 23 -2 6 11 -17 13 -16 13 13 6 25 -7 35 -6 45 7 12 16 11 16 -7 2 -18
-14 -19 -14 -6 2 10 14 17 15 34 7 16 -9 19 -9 14 3 -3 8 1 15 9 15 7 0 11 -5
8 -11 -3 -6 2 -2 10 8 9 11 16 16 16 12 0 -5 7 -3 15 4 8 7 15 9 15 4 0 -5 5
-1 11 8 6 11 16 15 26 11 12 -5 14 -3 8 8 -8 12 -6 12 8 0 13 -10 17 -10 17
-1 0 7 7 10 15 6 9 -3 18 1 21 8 3 8 12 17 20 20 10 4 13 2 8 -7 -5 -9 -4 -9
6 0 7 6 19 9 28 6 11 -5 13 -3 7 7 -6 10 -4 12 9 7 10 -4 15 -3 11 3 -3 6 -1
10 5 10 6 0 8 5 4 12 -5 7 -3 8 7 2 8 -4 20 -9 27 -10 10 -2 11 1 1 12 -10 12
-9 13 5 8 9 -3 16 -1 16 6 0 6 5 8 10 5 6 -3 10 -1 10 5 0 6 5 8 12 4 20 -13
46 -12 41 1 -2 8 5 12 19 12 31 0 59 13 52 24 -3 5 -2 9 3 10 35 3 59 12 66
24 5 9 19 13 37 11 19 -2 27 1 23 7 -4 6 0 8 10 4 17 -7 41 15 29 28 -4 5 -2
5 5 2 14 -9 45 2 38 13 -3 5 0 12 6 16 8 4 9 3 5 -4 -4 -7 -2 -12 3 -12 6 0
11 6 11 13 0 8 4 7 10 -3 6 -9 10 -11 10 -3 0 7 7 10 17 6 9 -4 14 -2 11 3 -3
5 0 15 8 22 11 10 14 10 14 0 0 -8 5 -6 11 5 6 9 14 15 20 12 5 -4 9 2 9 12 0
12 3 14 8 6 6 -9 14 -8 35 6 15 9 24 21 20 24 -12 13 13 7 26 -6 9 -7 11 -7 8
-1 -4 7 0 15 9 18 10 4 13 2 8 -7 -5 -8 -2 -8 9 2 9 7 14 18 11 23 -4 6 2 5
14 -1 18 -9 19 -8 15 12 -3 16 -2 18 5 8 8 -11 11 -9 17 9 4 12 10 19 14 14
10 -15 31 -15 31 0 0 9 7 13 19 11 15 -3 18 1 14 18 -3 13 -1 18 4 11 4 -6 17
-14 27 -17 16 -6 17 -5 6 8 -11 13 -10 14 5 9 13 -5 16 -4 11 5 -6 9 -1 12 15
9 17 -2 24 2 23 14 -1 11 4 14 13 11 9 -4 20 1 25 10 5 10 14 17 21 17 7 0 6
-4 -3 -10 -8 -5 -11 -10 -7 -10 5 0 20 9 34 20 14 11 29 17 34 15 4 -3 6 4 4
16 -3 17 -2 20 7 11 8 -8 15 -7 24 6 9 11 13 13 14 4 0 -7 5 -10 11 -7 6 4 8
13 6 19 -3 7 1 13 9 13 7 0 11 -5 7 -10 -3 -5 6 -1 21 8 25 17 38 34 14 19 -7
-4 -8 -3 -4 5 4 6 12 9 17 5 6 -3 20 2 32 13 21 18 21 18 7 -1 -13 -17 -13
-19 0 -11 32 20 59 49 53 58 -4 6 -1 7 7 2 7 -4 16 -2 21 6 6 11 9 11 9 1 0
-9 7 -8 25 4 14 9 25 23 25 31 0 8 5 11 10 8 6 -4 8 -12 4 -18 -3 -7 1 -4 9 5
8 10 20 18 26 18 7 0 9 5 5 13 -6 9 -4 9 8 -1 13 -11 19 -9 35 11 10 13 26 23
36 21 9 -1 15 1 12 6 -3 4 3 14 12 21 14 12 16 12 8 -1 -8 -13 -6 -13 8 -1 9
7 24 10 33 7 14 -5 15 -4 5 8 -9 11 -8 15 4 20 11 4 14 2 10 -7 -4 -6 0 -4 8
5 8 10 24 19 36 21 13 2 26 9 30 16 5 7 12 12 17 11 4 -1 11 7 15 17 4 10 8
12 8 5 1 -10 4 -10 15 0 8 7 10 17 6 23 -6 7 4 10 26 9 19 -1 32 1 30 5 -2 3
2 11 9 18 11 10 15 10 18 0 4 -9 6 -8 6 1 1 20 24 39 40 34 10 -3 12 0 8 12
-8 21 -3 20 19 -1 17 -17 17 -17 12 5 -5 19 -3 22 13 17 13 -5 19 -2 17 7 -2
7 3 12 10 10 10 -2 11 4 6 20 -6 21 -6 21 10 5 15 -15 36 -15 36 -1 0 3 -4 2
-10 -1 -5 -3 -10 -1 -10 6 0 7 8 9 21 6 15 -4 18 -2 10 7 -8 9 -5 12 12 12 13
-1 21 4 20 11 -2 7 3 12 10 10 6 -1 11 3 10 10 -2 8 4 10 14 6 11 -4 14 -3 9
5 -6 11 18 17 46 13 4 0 4 7 1 16 -4 11 -3 14 5 9 12 -7 54 28 45 38 -3 3 4 3
17 1 17 -3 20 -1 16 12 -6 13 -4 14 9 3 13 -11 16 -11 13 0 -2 7 3 15 11 18
10 3 11 0 5 -9 -6 -12 -5 -12 10 0 9 8 15 20 12 27 -3 9 3 11 20 8 14 -3 23
-1 21 3 -3 4 1 13 8 20 11 10 15 10 18 0 3 -7 6 -5 6 5 1 11 6 15 15 12 8 -3
21 4 29 16 9 12 20 19 26 16 7 -5 8 -1 4 10 -5 14 -3 16 11 11 11 -5 15 -3 10
5 -5 8 -2 9 10 5 9 -4 15 -3 13 1 -4 8 23 36 38 38 31 3 56 18 51 30 -3 9 2
14 14 14 10 0 22 5 26 12 4 7 3 8 -4 4 -7 -4 -12 -5 -12 -2 0 3 10 10 21 17
15 8 19 8 15 0 -14 -22 6 -11 26 15 11 14 27 23 34 20 8 -3 13 -2 13 2 -3 18
2 32 12 32 5 0 7 -4 4 -10 -3 -5 -1 -10 4 -10 6 0 11 5 11 10 0 6 7 10 15 10
8 0 14 3 12 8 -1 4 8 17 20 29 16 16 24 18 33 10 10 -9 11 -9 6 0 -4 7 5 18
23 28 17 8 35 24 41 35 6 11 18 20 26 20 9 0 12 5 8 13 -6 9 -4 9 8 -1 11 -9
18 -10 23 -2 3 5 3 10 -1 10 -4 0 1 9 11 20 10 11 26 20 37 20 10 0 18 4 18 9
0 8 37 24 52 22 5 -1 7 2 7 7 -3 18 2 32 12 32 5 0 7 -6 3 -12 -4 -8 -3 -10 2
-5 5 5 10 13 10 18 1 5 2 12 3 15 0 4 7 1 15 -5 11 -9 16 -9 22 0 5 8 3 9 -6
4 -9 -6 -11 -4 -6 4 5 7 15 10 23 7 8 -3 11 -1 8 4 -4 6 0 17 9 25 11 11 16
12 20 2 4 -6 4 -2 2 10 -3 16 1 21 14 18 10 -2 21 3 24 11 3 8 15 14 27 14 12
0 19 3 16 7 -4 3 1 12 11 20 9 8 11 11 3 7 -9 -4 -12 -3 -7 4 4 6 13 9 21 6 8
-4 18 1 21 10 3 9 10 16 15 16 15 0 50 40 44 50 -4 6 1 10 10 10 10 0 13 -5 9
-12 -6 -10 -5 -10 8 -1 8 7 19 9 23 5 5 -4 6 -2 3 3 -3 6 4 19 15 30 11 12 17
14 13 5 -4 -8 0 -6 8 4 9 11 16 24 16 29 0 4 5 5 10 2 6 -3 10 -1 10 5 0 6 4
9 8 6 11 -7 73 50 64 60 -4 4 2 2 12 -6 18 -14 19 -14 8 7 -10 19 -9 20 8 16
13 -3 20 0 20 8 0 11 2 11 10 -1 8 -13 10 -12 10 3 0 9 5 17 11 17 5 0 7 6 3
13 -5 7 0 6 11 -3 11 -9 16 -10 11 -2 -9 15 11 36 39 40 11 2 26 11 33 20 7 9
16 16 20 15 4 -1 6 5 4 12 -2 10 3 13 14 8 12 -4 15 -3 10 5 -4 7 -2 12 4 12
6 0 9 4 6 8 -3 5 5 8 17 8 12 -1 21 4 20 11 -2 8 4 10 14 6 12 -5 14 -3 8 7
-6 10 -4 12 8 7 12 -4 15 -1 12 14 -3 16 -1 18 9 10 9 -8 19 -5 36 14 13 13
27 22 32 19 5 -3 8 -2 7 3 -4 21 2 33 16 33 8 0 15 7 15 16 0 8 4 13 9 10 5
-3 12 1 15 10 5 14 9 14 23 3 12 -10 14 -10 9 -1 -11 18 4 38 16 21 7 -10 9
-8 5 7 -3 15 0 21 11 20 9 0 22 10 29 24 7 14 13 19 13 11 0 -9 5 -7 17 6 10
10 14 13 9 6 -5 -8 -7 -16 -4 -19 3 -2 13 10 21 28 9 18 17 26 17 18 0 -12 3
-11 11 3 5 9 7 22 3 29 -4 6 -3 8 4 4 5 -3 12 -3 15 1 2 5 2 2 0 -5 -1 -7 2
-10 7 -7 6 3 10 12 10 19 0 8 8 13 18 12 9 0 16 4 15 11 -2 6 6 15 17 18 11 4
20 15 20 26 0 10 5 19 11 19 5 0 8 -4 5 -8 -3 -5 2 -9 10 -9 8 0 13 6 10 14
-5 12 6 17 26 14 4 0 5 5 2 13 -3 8 0 17 7 22 8 4 10 3 5 -4 -5 -8 -1 -10 9
-6 9 4 14 12 11 20 -3 7 3 18 12 26 13 11 14 11 7 -1 -6 -11 -4 -13 9 -8 10 4
22 7 28 7 6 0 7 7 4 16 -3 8 -2 13 3 9 5 -3 23 6 39 20 16 13 33 21 38 17 4
-4 2 2 -6 12 -10 13 -10 17 -2 12 7 -4 12 -2 12 4 0 6 4 9 9 6 5 -3 12 1 15
10 4 9 13 14 22 10 8 -3 13 -2 10 3 -3 5 10 22 29 38 19 17 32 33 29 36 -3 3
3 3 15 0 13 -3 21 -1 21 6 0 7 -5 9 -10 6 -6 -3 -10 -4 -10 0 0 3 12 10 26 15
14 6 22 14 19 20 -6 9 8 14 27 11 8 -1 12 15 9 32 -1 4 7 3 17 -2 17 -9 19 -7
16 14 -2 26 11 34 19 13 4 -10 6 -10 6 0 1 7 5 10 11 7 6 -3 7 1 4 9 -4 11 0
16 13 16 29 0 62 28 58 50 -2 13 1 17 10 14 7 -3 19 4 25 16 7 13 17 19 26 16
11 -4 12 -2 4 14 -8 16 -7 18 9 15 11 -2 22 3 25 11 4 10 1 13 -7 9 -6 -4 -1
2 13 13 13 11 29 18 34 15 5 -4 7 1 3 9 -4 11 0 15 11 13 11 -1 23 11 35 34 9
20 15 27 12 17 -5 -16 -3 -17 10 -6 8 7 12 17 8 24 -4 6 2 4 12 -4 11 -9 16
-10 11 -3 -4 8 -2 13 4 13 6 0 9 4 5 9 -3 5 -1 12 5 16 5 3 10 0 11 -7 0 -7 5
-1 11 15 5 15 14 24 21 20 6 -4 8 0 4 10 -4 12 -1 17 11 17 20 0 65 44 75 73
4 10 11 15 17 12 5 -3 10 -1 10 5 0 7 6 10 14 7 10 -4 13 1 11 18 -1 14 2 22
6 19 5 -3 9 0 9 6 0 6 5 8 12 4 8 -5 9 -2 4 11 -6 16 -4 16 11 4 11 -9 14 -10
9 -2 -7 12 5 18 27 14 5 -1 7 4 5 11 -3 7 6 22 18 33 17 16 20 25 12 33 -8 8
-5 9 9 6 14 -4 26 1 35 15 8 12 19 18 24 13 4 -4 2 2 -6 12 -8 11 -10 17 -4
13 7 -4 15 0 18 9 3 8 10 12 16 9 5 -3 10 -1 10 5 0 6 5 8 13 4 8 -5 7 -2 -2
9 -12 15 -12 17 2 11 15 -5 42 27 31 38 -2 3 4 11 13 19 17 13 17 13 3 -5 -13
-17 -13 -19 0 -14 8 3 15 14 14 26 0 12 3 19 7 16 10 -6 49 18 49 30 0 4 -7 3
-15 -4 -9 -7 -18 -11 -20 -8 -3 3 6 11 20 18 14 7 25 19 25 26 0 7 8 11 19 9
14 -3 18 1 14 11 -3 8 0 14 6 14 6 0 11 7 11 15 0 9 7 18 15 21 8 4 13 10 10
14 -3 4 7 11 21 14 21 6 24 10 14 21 -10 12 -8 13 9 10 12 -2 21 1 21 6 0 6 6
7 13 3 8 -5 7 -2 -2 10 -13 15 -12 18 7 23 12 3 19 9 16 14 -3 5 0 9 7 9 8 0
8 4 -1 15 -11 13 -10 14 4 9 9 -3 16 -1 16 5 0 6 6 11 14 11 7 0 20 8 27 17
12 15 12 16 -1 8 -8 -4 -2 4 13 18 15 15 25 32 22 37 -4 6 -1 9 7 8 7 -2 12 3
10 10 -1 6 1 11 5 11 20 -3 34 2 28 11 -3 6 1 13 9 16 9 3 16 13 16 21 0 8 5
11 12 7 8 -5 9 -2 5 10 -4 11 2 27 18 44 14 15 25 21 25 14 0 -6 -4 -12 -10
-12 -5 0 -10 -6 -10 -12 1 -7 9 -2 20 11 11 12 17 27 14 32 -3 5 0 9 5 9 6 0
11 6 11 14 0 7 7 19 15 26 8 7 12 16 9 21 -3 5 4 9 15 9 12 0 21 6 21 14 0 8
7 17 16 20 13 5 14 9 4 21 -11 13 -10 14 5 9 12 -5 16 -4 11 4 -3 6 3 16 14
22 11 6 18 15 15 21 -4 5 -3 9 2 8 19 -3 33 2 33 12 0 5 -6 7 -12 3 -10 -5
-10 -3 0 7 11 12 14 12 23 -1 9 -13 10 -12 5 2 -6 21 18 71 29 60 5 -4 6 0 2
9 -4 13 -1 16 15 11 14 -3 19 -1 14 6 -4 7 -2 12 3 12 6 0 10 6 9 13 -2 6 3
11 10 9 6 -1 11 1 11 5 -5 31 4 53 24 59 12 5 25 7 29 6 3 -1 9 5 12 13 3 10
0 12 -11 8 -13 -5 -12 -2 3 14 10 11 22 18 26 16 4 -2 9 1 13 7 3 5 0 10 -7
10 -9 1 -8 4 3 13 9 7 14 18 12 25 -3 7 4 12 15 12 12 0 22 9 25 21 4 14 10
18 19 13 11 -6 11 -5 0 8 -10 12 -10 17 1 27 8 6 17 8 20 4 4 -3 7 3 7 14 0
23 23 46 35 35 5 -4 5 1 1 12 -4 13 -2 17 8 13 10 -4 13 -1 10 7 -3 8 0 17 5
21 6 3 9 11 6 16 -6 8 9 13 29 10 5 -1 4 5 -3 13 -11 13 -10 15 7 11 13 -2 19
2 18 13 0 10 5 16 13 14 11 -2 12 0 3 10 -7 10 -8 18 0 28 8 12 8 11 3 -5 -5
-16 -4 -18 7 -7 7 7 13 22 13 35 0 12 6 21 13 19 11 -2 16 10 13 31 0 4 2 6 6
6 28 -5 33 2 22 24 -6 12 -8 19 -4 14 11 -9 55 32 55 50 0 8 4 12 9 9 5 -3 12
1 15 10 4 10 2 13 -7 9 -6 -4 -3 0 7 9 10 8 24 13 30 9 6 -3 6 0 -1 7 -10 11
-9 16 5 27 9 8 11 11 3 7 -9 -5 -12 -3 -7 4 4 7 14 12 23 12 10 0 13 6 9 16
-3 8 -2 12 4 9 10 -6 35 42 31 59 -1 5 5 6 13 3 10 -4 13 -1 10 7 -3 8 4 20
15 28 12 8 18 18 14 21 -3 4 -1 7 5 7 7 0 12 5 12 11 0 5 -6 7 -12 3 -10 -6
-10 -4 0 8 7 9 22 15 34 13 17 -4 18 -2 6 12 -9 12 -9 15 0 9 7 -4 12 -1 12 8
0 9 5 16 11 16 5 0 7 4 4 10 -3 5 2 10 12 10 15 0 16 2 3 10 -11 7 -11 10 -2
10 7 0 11 4 8 9 -3 5 2 8 12 7 9 0 16 5 15 12 -2 6 2 12 8 12 5 0 7 5 3 12 -5
8 -2 9 10 5 14 -6 15 -4 5 16 -12 21 -11 21 7 7 10 -8 16 -11 12 -6 -4 5 0 15
8 23 8 8 11 20 7 26 -4 6 0 8 9 4 12 -4 15 0 14 18 -2 15 3 25 13 28 9 2 23
17 31 33 8 16 22 35 30 42 8 8 9 11 3 7 -19 -9 -16 2 7 25 12 12 18 26 13 33
-4 7 0 6 11 -2 9 -8 16 -10 15 -5 -3 20 1 35 10 30 5 -3 12 1 15 10 3 8 2 13
-2 10 -5 -3 -9 1 -9 9 0 8 3 13 5 10 3 -3 11 0 19 6 11 10 11 15 1 27 -8 10
-9 13 -1 9 17 -11 43 3 36 19 -3 8 0 14 6 14 6 0 11 7 11 16 0 8 5 12 10 9 6
-3 11 2 11 12 1 10 2 23 4 28 1 6 3 17 4 25 1 12 3 12 10 2 6 -10 10 -8 14 8
3 12 10 20 14 17 5 -3 10 4 10 16 1 12 7 23 13 25 5 2 10 11 10 20 0 9 7 26
16 37 13 17 16 18 25 5 7 -11 8 -6 3 15 -4 17 -3 27 1 23 12 -12 35 27 30 51
-2 12 1 20 8 18 7 -1 11 4 9 12 -2 8 3 11 12 8 10 -4 14 0 11 13 -2 13 1 17
10 14 10 -4 13 0 10 15 -2 13 0 19 7 15 15 -10 29 18 16 34 -6 7 -7 12 -2 11
21 -4 28 2 14 11 -12 8 -10 10 10 11 14 0 20 3 13 5 -16 7 15 44 37 44 13 0
13 1 0 10 -10 6 -11 10 -3 10 7 0 12 3 12 8 -3 19 2 45 7 39 10 -10 45 34 37
46 -3 6 -1 7 5 3 11 -7 17 6 13 28 -1 5 4 13 11 17 13 8 14 12 17 47 1 14 3
15 10 3 8 -12 11 -9 16 12 4 15 10 27 14 27 3 0 12 9 19 21 11 17 11 20 0 13
-10 -6 -10 -4 1 9 11 14 11 17 0 18 -8 1 -3 4 11 8 14 4 25 12 25 19 0 6 9 18
20 27 11 9 13 13 5 9 -12 -5 -12 -4 -3 6 6 7 9 19 6 27 -3 8 0 13 8 11 8 -2
13 3 11 10 -1 8 1 11 6 8 14 -8 42 30 30 42 -7 7 -4 10 8 9 14 -2 18 4 16 21
-2 12 1 22 7 22 6 0 7 7 4 17 -4 10 -2 14 5 9 6 -3 13 3 17 14 4 12 11 17 18
13 7 -4 6 0 -2 10 -11 14 -11 18 3 23 9 3 16 13 16 21 0 9 5 11 13 7 7 -5 6 0
-3 11 -8 10 -10 16 -5 13 6 -3 15 0 22 7 10 11 10 15 0 18 -7 3 -1 6 12 6 19
1 21 4 12 15 -9 11 -9 16 0 22 8 4 9 3 5 -4 -15 -25 3 -10 20 15 16 25 16 26
1 14 -15 -12 -17 -12 -11 3 3 9 9 16 13 16 3 0 19 16 34 35 25 31 27 38 15 52
-7 9 -8 14 -2 10 10 -6 24 11 23 28 0 3 7 13 16 21 8 9 15 22 15 29 0 8 5 17
12 21 7 5 8 3 3 -6 -5 -9 -4 -11 4 -6 6 4 9 12 5 17 -10 17 5 59 20 53 9 -3
12 4 11 25 -2 26 0 29 14 18 12 -9 13 -9 7 1 -4 6 -2 12 4 12 8 0 8 6 0 20 -9
16 -8 19 6 13 12 -4 15 -3 10 5 -4 7 -2 12 4 12 7 0 9 7 6 16 -4 10 -2 13 6 8
7 -5 9 1 6 20 -5 23 -3 24 10 14 13 -10 14 -10 8 0 -4 7 -2 12 5 12 8 0 8 4
-1 16 -8 8 -9 14 -4 13 21 -4 28 2 14 12 -12 9 -11 10 6 6 17 -4 20 0 19 24
-2 26 5 33 27 30 8 -1 2 34 -8 52 -5 7 0 6 12 -3 10 -8 16 -10 11 -5 -4 4 0
19 8 32 9 13 13 27 10 32 -2 5 2 11 10 15 8 3 15 13 15 21 0 9 5 13 11 9 8 -4
8 0 0 15 -10 17 -9 21 4 21 8 0 14 6 12 13 -1 6 4 11 11 10 14 -3 16 13 2 22
-5 3 2 17 17 31 14 13 20 24 14 24 -7 0 -9 5 -6 10 4 6 12 7 18 3 7 -4 5 2 -3
13 -8 10 -10 16 -6 12 11 -10 49 49 41 63 -4 5 2 9 12 9 15 0 16 2 3 10 -13 9
-7 14 12 11 4 0 5 6 2 14 -4 8 -1 15 5 15 6 0 11 11 11 25 0 14 5 25 10 25 6
0 10 7 10 16 0 10 6 14 15 11 11 -5 12 -1 5 17 -7 19 -2 30 25 60 22 25 32 46
30 62 -1 13 2 24 6 24 5 0 8 6 6 13 -1 6 4 11 12 9 12 -3 12 -1 0 14 -8 10 -9
15 -3 11 16 -10 25 18 11 33 -9 10 -9 11 0 6 7 -4 21 -2 30 4 17 11 17 11 1 6
-22 -7 -22 -7 -2 32 8 18 12 37 8 44 -5 8 -1 8 12 -2 10 -8 16 -10 12 -6 -4 5
-2 16 5 24 9 13 9 14 0 8 -9 -5 -11 -2 -7 8 3 9 10 14 14 11 10 -6 7 15 -4 33
-7 11 -4 12 12 3 19 -10 20 -8 17 20 -3 23 -1 30 9 26 10 -4 12 1 8 15 -4 16
-2 20 10 15 13 -4 14 0 8 28 -7 30 -5 33 12 30 16 -4 18 -2 8 10 -10 12 -10
15 0 15 7 0 10 8 7 19 -3 12 4 29 15 41 11 11 17 28 14 36 -3 9 -1 12 4 9 6
-3 10 1 10 9 0 9 5 16 11 16 5 0 8 4 4 9 -3 5 0 13 6 17 8 4 7 9 -2 15 -11 7
-9 10 8 15 13 4 20 11 17 16 -4 6 0 14 7 19 10 6 10 9 2 9 -17 0 -4 30 22 53
13 12 16 20 9 23 -9 4 -8 13 3 34 8 16 18 32 23 35 4 3 7 20 5 39 -3 27 0 33
11 29 10 -4 12 0 7 13 -4 12 -3 15 6 9 10 -6 11 -3 1 15 -8 14 -8 20 -1 16 7
-5 10 3 7 23 -2 17 0 31 4 31 4 0 5 11 2 25 -3 17 0 25 9 25 11 0 11 2 -1 10
-12 8 -12 10 -1 10 11 0 11 3 0 17 -12 14 -12 16 2 11 12 -5 15 1 13 33 -1 22
2 42 7 45 5 3 6 11 2 17 -11 18 -12 38 -2 31 5 -3 6 -10 3 -16 -4 -7 -2 -8 5
-4 9 6 9 13 -3 30 -13 21 -13 25 7 41 15 13 17 20 9 23 -10 3 -10 7 -1 18 14
17 -2 19 -21 2 -8 -7 -7 -4 3 8 12 14 14 23 6 31 -7 7 -5 16 8 28 17 18 17 18
-7 12 -24 -6 -24 -5 -6 8 18 14 15 20 -7 16 -5 -1 -5 3 -2 9 4 6 13 9 19 7 14
-6 15 21 1 42 -5 10 -4 12 3 7 7 -4 12 -1 12 9 0 10 -5 13 -12 9 -10 -6 -10
-4 -2 7 12 17 12 48 0 68 -6 10 -5 12 2 7 7 -4 12 -2 12 3 0 6 -6 11 -12 11
-8 0 -9 3 -3 8 13 9 19 46 7 38 -10 -6 -8 28 3 57 4 10 3 17 -4 17 -9 0 -9 5
0 21 10 20 9 21 -12 16 -23 -6 -23 -5 -5 8 21 16 29 52 14 61 -5 3 -4 12 3 20
8 10 8 14 0 14 -6 0 -11 5 -11 11 0 5 4 8 8 5 12 -7 8 25 -5 49 -9 16 -8 24 4
37 15 16 15 18 0 18 -9 0 -18 4 -21 9 -3 5 2 8 12 7 19 -1 25 34 7 46 -6 5 -4
8 5 8 13 0 13 1 0 10 -10 6 -11 10 -2 10 16 0 16 27 0 33 -10 4 -10 6 -1 6 9
1 10 8 3 25 -6 17 -4 30 6 45 9 12 11 20 6 19 -10 -3 -13 4 -11 20 7 33 1 70
-11 82 -9 8 -10 11 -3 6 10 -6 12 -3 10 15 -3 13 0 34 4 47 6 16 6 21 -2 16
-8 -4 -9 1 -4 16 10 33 13 70 5 65 -4 -3 -10 6 -12 19 -4 17 -1 23 9 19 7 -3
13 -1 13 5 0 5 -7 13 -16 16 -16 6 -16 8 0 24 9 10 16 23 16 28 0 5 -5 2 -11
-6 -7 -11 -8 -6 -3 20 13 66 12 90 -3 90 -10 0 -11 5 -5 18 12 24 9 41 -8 53
-13 9 -12 10 3 5 9 -3 17 -1 17 5 0 6 5 7 12 3 7 -5 8 -3 4 5 -5 7 -15 10 -24
6 -14 -5 -14 -3 1 13 9 10 17 23 17 28 0 5 -5 2 -11 -6 -7 -11 -8 -6 -3 20 13
66 13 92 -2 86 -10 -4 -11 1 -5 17 10 31 8 46 -9 58 -12 9 -12 10 4 5 13 -4
17 -2 13 8 -3 7 0 19 6 26 9 10 9 11 0 6 -15 -8 -18 10 -3 19 5 3 10 12 10 18
0 7 -4 6 -10 -3 -8 -12 -10 -11 -10 7 0 12 6 23 13 26 9 3 9 7 0 19 -9 10 -9
18 -2 25 8 8 7 13 -2 18 -8 6 -10 4 -4 -6 5 -8 4 -10 0 -6 -15 13 -14 36 1 30
8 -3 14 -1 14 5 0 6 -6 12 -12 15 -10 3 -9 8 2 22 8 10 10 16 4 12 -7 -4 -14
1 -17 12 -3 14 -1 18 9 14 8 -3 14 -1 14 5 0 6 -6 12 -12 15 -10 3 -9 8 2 22
8 10 10 16 3 12 -18 -11 -22 16 -4 37 9 11 11 17 6 13 -6 -3 -17 4 -25 16 -12
21 -12 21 5 7 17 -13 18 -13 13 1 -4 9 -1 22 5 29 8 9 9 11 1 7 -7 -4 -14 3
-16 17 -4 17 -1 23 9 19 7 -3 13 -1 13 5 0 5 -7 13 -16 16 -16 6 -16 8 0 24 9
10 16 23 16 28 0 5 -5 2 -11 -6 -7 -11 -8 -6 -3 20 13 66 12 90 -3 90 -10 0
-11 5 -5 18 12 24 9 41 -8 53 -13 9 -12 10 3 5 9 -3 17 -1 17 5 0 6 5 7 12 3
7 -5 8 -3 4 5 -5 7 -15 10 -24 6 -14 -5 -14 -3 1 13 9 10 17 23 17 28 0 5 -5
2 -11 -6 -7 -11 -8 -6 -3 20 13 66 13 92 -2 86 -10 -4 -11 1 -5 17 10 31 8 46
-9 58 -12 9 -12 10 4 5 13 -4 17 -2 13 8 -3 7 0 19 6 26 9 10 9 11 0 6 -15 -8
-18 10 -3 19 5 3 10 12 10 18 0 7 -4 6 -10 -3 -8 -12 -10 -11 -10 7 0 12 6 23
13 26 9 3 9 7 0 19 -9 10 -9 18 -2 25 8 8 7 13 -2 18 -8 6 -10 4 -4 -6 5 -8 4
-10 0 -6 -15 13 -14 36 1 30 8 -3 14 -1 14 5 0 6 -6 12 -12 15 -10 3 -9 8 2
22 8 10 10 16 4 12 -7 -4 -14 1 -17 12 -3 14 -1 18 9 14 8 -3 14 -1 14 5 0 6
-6 12 -12 15 -10 3 -9 8 2 22 8 10 10 16 3 12 -18 -11 -22 16 -4 37 9 11 11
17 6 13 -6 -3 -17 4 -25 16 -12 21 -12 21 5 7 17 -13 18 -13 13 1 -4 9 -1 22
5 29 8 9 9 11 1 7 -7 -4 -14 3 -16 17 -4 17 -1 23 9 19 7 -3 13 -1 13 5 0 5
-7 13 -16 16 -16 6 -16 8 0 24 9 10 16 23 16 28 0 5 -5 2 -11 -6 -7 -11 -8 -6
-3 20 13 66 12 90 -3 90 -10 0 -11 5 -5 18 12 24 9 41 -8 53 -13 9 -12 10 3 5
9 -3 17 -1 17 5 0 6 5 7 12 3 7 -5 8 -3 4 5 -5 7 -15 10 -24 6 -14 -5 -14 -3
1 13 9 10 17 23 17 28 0 5 -5 2 -11 -6 -7 -11 -8 -6 -3 20 13 66 13 92 -2 86
-10 -4 -11 1 -5 17 10 31 8 46 -9 58 -12 9 -12 10 4 5 13 -4 17 -2 13 8 -3 7
0 19 6 26 9 10 9 11 0 6 -15 -8 -18 10 -3 19 5 3 10 12 10 18 0 8 -3 8 -9 -1
-6 -10 -10 -9 -14 7 -3 12 -1 19 4 15 5 -3 9 -2 10 3 6 50 4 63 -8 63 -10 0
-11 5 -5 18 12 24 9 41 -8 53 -13 9 -12 10 3 5 9 -3 17 -1 17 5 0 6 5 7 12 3
7 -4 8 -3 4 5 -4 6 -12 9 -17 6 -9 -6 -14 19 -9 40 1 6 3 17 3 25 0 8 4 21 10
28 7 9 4 12 -9 13 -18 0 -18 1 1 9 14 6 16 9 5 10 -8 2 -19 2 -24 1 -5 -1 -4
4 2 12 7 8 8 18 4 22 -4 5 -1 5 6 1 6 -4 12 -4 13 1 6 50 4 63 -8 63 -10 0
-11 5 -5 18 12 24 9 41 -8 53 -13 9 -12 10 3 5 22 -7 22 2 0 28 -17 20 -17 20
0 7 16 -12 17 -11 14 10 -3 13 0 34 4 47 6 16 6 21 -2 16 -8 -4 -9 1 -4 16 14
44 13 120 -2 120 -10 0 -11 5 -5 18 12 24 9 41 -8 53 -13 9 -12 10 3 5 9 -3
17 -1 17 5 0 6 5 7 12 3 7 -4 8 -3 4 5 -4 6 -12 9 -17 6 -9 -6 -14 19 -9 40 1
6 3 17 3 25 0 8 4 21 10 28 7 9 4 12 -9 13 -18 0 -18 1 1 9 14 6 16 9 5 10 -8
2 -19 2 -24 1 -5 -1 -4 4 2 12 7 8 8 18 4 22 -4 5 -1 5 6 1 6 -4 12 -4 13 1 6
50 4 63 -8 63 -10 0 -11 5 -5 18 12 24 9 41 -8 53 -13 9 -12 10 3 5 22 -7 22
2 0 28 -17 20 -17 20 0 7 16 -12 17 -11 14 10 -3 13 0 34 4 47 6 16 6 21 -2
16 -8 -4 -9 1 -4 16 14 44 13 120 -2 120 -10 0 -11 5 -5 18 12 24 9 41 -8 53
-13 9 -12 10 3 5 9 -3 17 -1 17 5 0 6 5 7 12 3 7 -4 8 -3 4 5 -4 6 -12 9 -17
6 -9 -6 -14 19 -9 40 1 6 3 17 3 25 0 8 4 21 10 28 7 9 4 12 -9 13 -18 0 -18
1 1 9 14 6 16 9 5 10 -8 2 -19 2 -24 1 -5 -1 -4 4 2 12 7 8 8 18 4 22 -4 5 -1
5 6 1 6 -4 12 -4 13 1 6 50 4 63 -8 63 -10 0 -11 5 -5 18 12 24 9 41 -8 53
-13 9 -12 10 3 5 9 -3 17 -2 17 1 0 4 -8 16 -17 27 -17 20 -17 20 0 7 16 -12
17 -11 14 10 -3 13 0 34 4 47 6 16 6 21 -2 16 -8 -4 -9 1 -4 16 14 44 13 120
-2 120 -10 0 -11 5 -5 18 12 24 9 41 -8 53 -13 9 -12 10 3 5 9 -3 17 -1 17 5
0 6 5 7 12 3 7 -4 8 -3 4 5 -4 6 -12 9 -17 6 -9 -6 -14 19 -9 40 1 6 3 17 3
25 0 8 4 21 10 28 7 9 4 12 -9 13 -18 0 -18 1 1 9 14 6 16 9 5 10 -8 2 -19 2
-24 1 -5 -1 -4 4 2 12 7 8 8 18 4 22 -4 5 -1 5 6 1 6 -4 12 -4 13 1 6 50 4 63
-8 63 -10 0 -11 5 -5 18 12 24 9 41 -8 53 -13 9 -12 10 3 5 9 -3 17 -2 17 1 0
4 -8 16 -17 27 -17 20 -17 20 0 7 16 -12 17 -11 14 10 -3 13 0 34 4 47 6 16 6
21 -2 16 -8 -4 -9 1 -4 16 10 33 13 70 5 65 -4 -3 -10 6 -12 19 -4 17 -1 23 9
19 7 -3 13 -1 13 5 0 5 -7 13 -16 16 -16 6 -16 8 0 24 9 10 16 23 16 28 0 5
-5 2 -11 -6 -7 -11 -8 -6 -3 20 13 66 12 90 -3 90 -10 0 -11 5 -5 18 12 24 9
41 -8 53 -13 9 -12 10 3 5 9 -3 17 -1 17 5 0 6 5 7 12 3 7 -5 8 -3 4 5 -5 7
-15 10 -24 6 -14 -5 -14 -3 1 13 9 10 17 23 17 28 0 5 -5 2 -11 -6 -7 -11 -8
-6 -3 20 13 66 13 92 -2 86 -10 -4 -11 1 -5 17 10 31 8 46 -9 58 -12 9 -12 10
4 5 13 -4 17 -2 13 8 -3 7 0 19 6 26 9 10 9 11 0 6 -15 -8 -18 10 -3 19 6 3
10 12 10 18 0 7 -4 6 -10 -3 -8 -12 -10 -11 -10 7 0 12 6 23 13 26 9 3 9 7 0
19 -9 10 -9 18 -2 25 8 8 7 13 -2 18 -8 6 -10 4 -4 -6 5 -8 4 -10 0 -6 -15 13
-14 36 1 30 8 -3 14 -1 14 5 0 6 -6 12 -12 15 -10 3 -9 8 2 22 8 10 10 16 4
12 -7 -4 -14 1 -17 12 -3 14 -1 18 9 14 8 -3 14 -1 14 5 0 6 -6 12 -12 15 -10
3 -9 8 2 22 8 10 10 16 3 12 -18 -11 -22 16 -4 37 9 11 11 17 6 13 -6 -3 -17
4 -25 16 -12 21 -12 21 5 7 17 -13 18 -13 13 1 -4 9 -1 22 5 29 8 9 9 11 1 7
-7 -4 -14 3 -16 17 -4 17 -1 23 9 19 7 -3 13 -1 13 5 0 5 -7 13 -16 16 -16 6
-16 8 0 24 9 10 16 23 16 28 0 5 -5 2 -11 -6 -7 -11 -8 -6 -3 20 13 66 12 90
-3 90 -10 0 -11 5 -5 18 12 24 9 41 -8 53 -13 9 -12 10 3 5 9 -3 17 -1 17 5 0
6 5 7 12 3 7 -5 8 -3 4 5 -5 7 -15 10 -24 6 -14 -5 -14 -3 1 13 9 10 17 23 17
28 0 5 -5 2 -11 -6 -7 -11 -8 -6 -3 20 13 66 13 92 -2 86 -10 -4 -11 1 -5 17
10 31 8 46 -9 58 -12 9 -12 10 4 5 13 -4 17 -2 13 8 -3 7 0 19 6 26 9 10 9 11
0 6 -15 -8 -18 10 -3 19 6 3 10 12 10 18 0 7 -4 6 -10 -3 -8 -12 -10 -11 -10
7 0 12 6 23 13 26 9 3 9 7 0 19 -9 10 -9 18 -2 25 8 8 7 13 -2 18 -8 6 -10 4
-4 -6 5 -8 4 -10 0 -6 -15 13 -14 36 1 30 8 -3 14 -1 14 5 0 6 -6 12 -12 15
-10 3 -9 8 2 22 8 10 10 16 4 12 -7 -4 -14 1 -17 12 -3 14 -1 18 9 14 8 -3 14
-1 14 5 0 6 -6 12 -12 15 -10 3 -9 8 2 22 8 10 10 16 3 12 -18 -11 -22 16 -4
37 9 11 11 17 6 13 -6 -3 -17 4 -25 16 -12 21 -12 21 5 7 17 -13 18 -13 13 1
-4 9 -1 22 5 29 8 9 9 11 1 7 -7 -4 -14 3 -16 17 -4 17 -1 23 9 19 7 -3 13 -1
13 5 0 5 -7 13 -16 16 -16 6 -16 8 0 24 9 10 16 23 16 28 0 5 -5 2 -11 -6 -7
-11 -8 -6 -3 20 13 66 12 90 -3 90 -10 0 -11 5 -5 18 12 24 9 41 -8 53 -13 9
-12 10 3 5 9 -3 17 -1 17 5 0 6 5 7 12 3 7 -5 8 -3 4 5 -5 7 -15 10 -24 6 -14
-5 -14 -3 1 13 9 10 17 23 17 28 0 5 -5 2 -11 -6 -7 -11 -8 -6 -3 20 13 66 13
92 -2 86 -10 -4 -11 1 -5 17 10 31 8 46 -9 58 -12 9 -12 10 4 5 13 -4 17 -2
13 8 -3 7 0 19 6 26 9 10 9 11 0 6 -15 -8 -18 10 -3 19 6 3 10 12 10 18 0 8
-3 8 -9 -1 -6 -10 -10 -9 -14 7 -3 12 -1 19 4 15 5 -3 9 -2 10 3 6 50 4 63 -8
63 -10 0 -11 5 -5 18 12 24 9 41 -8 53 -13 9 -12 10 3 5 9 -3 17 -1 17 5 0 6
5 7 12 3 7 -4 8 -3 4 5 -4 6 -12 9 -17 6 -9 -6 -14 19 -9 40 1 6 3 17 3 25 0
8 4 21 10 28 7 9 4 12 -9 13 -18 0 -18 1 1 9 14 6 16 9 5 10 -8 2 -19 2 -24 1
-5 -1 -4 4 2 12 7 8 8 18 4 22 -4 5 -1 5 6 1 6 -4 12 -4 13 1 6 50 4 63 -8 63
-10 0 -11 5 -5 18 12 24 9 41 -8 53 -13 9 -12 10 3 5 22 -7 22 2 0 28 -17 20
-17 20 0 7 16 -12 17 -11 14 10 -3 13 0 34 4 47 6 16 6 21 -2 16 -8 -4 -9 1
-4 16 14 44 13 120 -2 120 -10 0 -11 5 -5 18 12 24 9 41 -8 53 -13 9 -12 10 3
5 9 -3 17 -1 17 5 0 6 5 7 12 3 7 -4 8 -3 4 5 -4 6 -12 9 -17 6 -9 -6 -14 19
-9 40 1 6 3 17 3 25 0 8 4 21 10 28 7 9 4 12 -9 13 -18 0 -18 1 1 9 14 6 16 9
5 10 -8 2 -19 2 -24 1 -5 -1 -4 4 2 12 7 8 8 18 4 22 -4 5 -1 5 6 1 6 -4 12
-4 13 1 6 50 4 63 -8 63 -10 0 -11 5 -5 18 12 24 9 41 -8 53 -13 9 -12 10 3 5
22 -7 22 2 0 28 -17 20 -17 20 0 7 16 -12 17 -11 14 10 -3 13 0 34 4 47 6 16
6 21 -2 16 -8 -4 -9 1 -4 16 14 44 13 120 -2 120 -10 0 -11 5 -5 18 12 24 9
41 -8 53 -13 9 -12 10 3 5 9 -3 17 -1 17 5 0 6 5 7 12 3 7 -4 8 -3 4 5 -4 6
-12 9 -17 6 -9 -6 -14 19 -9 40 1 6 3 17 3 25 0 8 4 21 10 28 7 9 4 12 -9 13
-18 0 -18 1 1 9 14 6 16 9 5 10 -8 2 -19 2 -24 1 -5 -1 -4 4 2 12 7 8 8 18 4
22 -4 5 -1 5 6 1 6 -4 12 -4 13 1 6 50 4 63 -8 63 -10 0 -11 5 -5 18 12 24 9
41 -8 53 -13 9 -12 10 3 5 9 -3 17 -2 17 1 0 4 -8 16 -17 27 -17 20 -17 20 0
7 16 -12 17 -11 14 10 -3 13 0 34 4 47 6 16 6 21 -2 16 -8 -4 -9 1 -4 16 14
44 13 120 -2 120 -10 0 -11 5 -5 18 12 24 9 41 -8 53 -13 9 -12 10 3 5 9 -3
17 -1 17 5 0 6 5 7 12 3 7 -4 8 -3 4 5 -4 6 -12 9 -17 6 -9 -6 -14 19 -9 40 1
6 3 17 3 25 0 8 4 21 10 28 7 9 4 12 -9 13 -18 0 -18 1 1 9 14 6 16 9 5 10 -8
2 -19 2 -24 1 -5 -1 -4 4 2 12 7 8 8 18 4 22 -4 5 -1 5 6 1 6 -4 12 -4 13 1 6
50 4 63 -8 63 -10 0 -11 5 -5 18 12 24 9 41 -8 53 -13 9 -12 10 3 5 22 -7 22
2 0 28 -17 20 -17 20 0 7 16 -12 17 -11 14 10 -3 13 0 34 4 47 6 16 6 21 -2
16 -8 -4 -9 1 -4 16 10 33 13 70 5 65 -4 -3 -10 6 -12 19 -4 17 -1 23 9 19 7
-3 13 -1 13 5 0 5 -7 13 -16 16 -16 6 -16 8 0 24 9 10 16 23 16 28 0 5 -5 2
-11 -6 -7 -11 -8 -6 -3 20 13 66 12 90 -3 90 -10 0 -11 5 -5 18 12 24 9 41 -8
53 -13 9 -12 10 3 5 9 -3 17 -1 17 5 0 6 5 7 12 3 7 -5 8 -3 4 5 -5 7 -15 10
-24 6 -14 -5 -14 -3 1 13 9 10 17 23 17 28 0 5 -5 2 -11 -6 -7 -11 -8 -6 -3
20 13 66 13 92 -2 86 -10 -4 -11 1 -5 17 10 31 8 46 -9 58 -12 9 -12 10 4 5
13 -4 17 -2 13 8 -3 7 0 19 6 26 9 10 9 11 0 6 -15 -8 -18 10 -3 19 6 3 10 12
10 18 0 7 -4 6 -10 -3 -8 -12 -10 -11 -10 7 0 12 6 23 13 26 9 3 9 7 0 19 -9
10 -9 18 -2 25 8 8 7 13 -2 18 -8 6 -10 4 -4 -6 5 -8 4 -10 0 -6 -15 13 -14
36 1 30 8 -3 14 -1 14 5 0 6 -6 12 -12 15 -10 3 -9 8 2 22 8 10 10 16 4 12 -7
-4 -14 1 -17 12 -3 14 -1 18 9 14 8 -3 14 -1 14 5 0 6 -6 12 -12 15 -10 3 -9
8 2 22 8 10 10 16 3 12 -18 -11 -22 16 -4 37 9 11 11 17 6 13 -6 -3 -17 4 -25
16 -12 21 -12 21 5 7 17 -13 18 -13 13 1 -4 9 -1 22 5 29 8 9 9 11 1 7 -7 -4
-14 3 -16 17 -4 17 -1 23 9 19 7 -3 13 -1 13 5 0 5 -7 13 -16 16 -16 6 -16 8
0 24 9 10 16 23 16 28 0 5 -5 2 -11 -6 -7 -11 -8 -6 -3 20 13 66 12 90 -3 90
-10 0 -11 5 -5 18 12 24 9 41 -8 53 -13 9 -12 10 3 5 9 -3 17 -1 17 5 0 6 5 7
12 3 7 -5 8 -3 4 5 -5 7 -15 10 -24 6 -14 -5 -14 -3 1 13 9 10 17 23 17 28 0
5 -5 2 -11 -6 -7 -11 -8 -6 -3 20 13 66 13 92 -2 86 -10 -4 -11 1 -5 17 10 31
8 46 -9 58 -12 9 -12 10 4 5 13 -4 17 -2 13 8 -3 7 0 19 6 26 9 10 9 11 0 6
-15 -8 -18 10 -3 19 6 3 10 12 10 18 0 7 -4 6 -10 -3 -8 -12 -10 -11 -10 7 0
12 6 23 13 26 9 3 9 7 0 19 -9 10 -9 18 -2 25 8 8 7 13 -2 18 -8 6 -10 4 -4
-6 5 -8 4 -10 0 -6 -15 13 -14 36 1 30 8 -3 14 -1 14 5 0 6 -6 12 -12 15 -10
3 -9 8 2 22 8 10 10 16 4 12 -7 -4 -14 2 -17 13 -3 11 0 23 5 27 7 3 8 1 4 -5
-4 -7 -3 -12 3 -12 5 0 9 9 8 19 0 11 -5 17 -11 14 -5 -4 -7 1 -3 10 3 9 3 16
-1 16 -19 -3 -25 2 -12 11 10 6 11 10 3 10 -7 0 -13 6 -13 13 0 22 -68 90 -85
84 -9 -4 -15 -1 -15 7 0 23 -25 37 -39 23 -9 -9 -14 -9 -21 2 -7 13 -11 13
-26 0 -11 -9 -15 -9 -10 -1 8 14 -19 12 -43 -2 -10 -7 -13 -5 -9 5 4 10 -1 15
-13 15 -13 0 -18 -5 -14 -15 4 -10 2 -11 -7 -4 -23 17 -47 22 -54 11 -4 -6 -3
-8 2 -5 6 3 16 1 24 -4 12 -7 10 -8 -7 -6 -12 2 -25 6 -29 10 -4 3 -14 3 -23
-2 -23 -11 -40 -8 -51 9 -8 12 -10 12 -10 1 0 -8 -3 -11 -6 -8 -4 3 -16 1 -28
-5 l-21 -11 20 24 c11 13 13 18 5 12 -21 -16 -72 -35 -66 -24 3 5 -1 12 -10
15 -8 3 -12 2 -9 -4 3 -6 3 -10 -2 -11 -4 0 -18 -2 -30 -3 -12 -1 -20 1 -17 6
3 4 -2 8 -11 8 -9 0 -13 5 -10 10 10 16 -1 11 -16 -7 -12 -14 -12 -16 0 -8 10
6 12 4 6 -4 -5 -9 -13 -7 -29 8 -19 17 -23 18 -40 5 -17 -12 -22 -12 -40 4
-17 14 -18 14 -8 1 10 -14 10 -18 -3 -23 -8 -3 -15 -1 -15 3 0 5 -7 12 -16 15
-10 4 -13 2 -8 -6 5 -7 2 -9 -8 -5 -9 3 -21 0 -28 -6 -10 -9 -11 -9 -5 2 6 11
4 13 -11 7 -38 -15 -54 -15 -64 2 -5 9 -10 12 -10 6 0 -6 -12 -10 -27 -10 -16
1 -35 -2 -44 -6 -9 -4 -19 -4 -23 -1 -11 12 -40 12 -52 2 -9 -7 -16 -5 -23 8
-10 17 -10 17 -11 -2 -1 -11 -4 -14 -7 -8 -3 10 -10 10 -26 1 -19 -10 -20 -9
-9 4 10 13 10 18 1 24 -8 4 -9 3 -5 -4 5 -8 0 -12 -13 -12 -32 0 -35 -1 -50
-13 -12 -10 -14 -9 -8 6 6 16 4 16 -23 2 -17 -9 -30 -11 -30 -5 0 5 5 10 12
10 6 0 8 3 4 7 -4 5 -14 -1 -22 -11 -13 -19 -20 -11 -15 17 1 5 -3 5 -9 2 -6
-4 -9 -14 -5 -23 4 -12 1 -12 -16 4 -12 10 -19 13 -15 7 4 -7 4 -13 -1 -14 -4
0 -16 -2 -25 -4 -10 -2 -22 4 -28 13 -7 13 -9 13 -10 3 0 -8 -3 -11 -6 -8 -4
3 -16 1 -28 -5 l-21 -11 20 23 20 23 -28 -18 c-15 -9 -27 -14 -27 -10 0 4 -6
2 -14 -4 -11 -9 -16 -9 -22 0 -5 8 -3 9 6 4 9 -5 11 -4 6 4 -6 9 -11 9 -23 0
-20 -18 -55 -19 -49 -3 3 7 0 16 -6 20 -7 5 -8 2 -3 -6 6 -10 4 -12 -8 -7 -9
3 -19 1 -23 -5 -5 -7 -2 -8 6 -3 9 6 11 4 5 -4 -5 -9 -10 -10 -18 -2 -6 6 -16
7 -28 1 -12 -7 -20 -6 -25 2 -5 7 -3 8 6 3 9 -6 11 -4 5 5 -6 10 -10 10 -20
-3 -10 -14 -12 -14 -23 1 -7 9 -10 11 -7 4 8 -16 -34 -10 -44 7 -6 10 -10 9
-14 -4 -5 -10 -3 -14 5 -9 7 5 8 3 4 -5 -6 -9 -13 -8 -29 6 -11 10 -17 13 -14
7 4 -7 0 -15 -9 -18 -24 -9 -31 -7 -14 5 11 7 5 8 -24 4 -21 -3 -43 -8 -49
-12 -6 -3 -7 -1 -3 5 4 7 2 12 -4 12 -6 0 -8 5 -4 12 4 7 3 8 -5 4 -6 -4 -8
-12 -5 -18 5 -7 2 -9 -8 -5 -9 3 -21 0 -28 -6 -10 -9 -11 -9 -5 2 6 11 4 13
-11 7 -38 -15 -54 -15 -64 2 -7 13 -9 13 -10 3 0 -8 -3 -11 -6 -8 -4 3 -16 1
-28 -5 l-21 -11 20 24 c11 13 13 18 5 12 -21 -16 -72 -35 -66 -24 3 5 -1 12
-10 15 -8 3 -12 2 -9 -4 3 -6 3 -10 -2 -11 -4 0 -18 -2 -30 -3 -12 -1 -20 1
-17 6 3 4 -2 8 -11 8 -9 0 -13 5 -10 10 10 16 -1 11 -16 -7 -12 -14 -12 -16 0
-8 10 5 12 4 7 -4 -6 -9 -11 -9 -23 1 -19 15 -41 19 -48 8 -3 -5 4 -7 16 -5
12 2 18 1 15 -3 -12 -12 -29 -9 -66 11 -24 14 -31 15 -22 4 10 -12 10 -16 0
-19 -21 -7 -48 3 -42 16 3 6 -2 2 -10 -8 -11 -14 -16 -15 -16 -6 0 10 -3 11
-11 3 -14 -14 -51 -5 -43 11 3 6 -1 3 -9 -7 -11 -13 -16 -15 -20 -5 -4 11 -8
11 -27 0 -16 -10 -20 -10 -14 -1 5 9 2 10 -12 4 -26 -10 -57 -14 -69 -6 -18
10 -44 11 -50 2 -3 -5 -14 -7 -25 -4 -19 5 -20 6 -3 20 17 13 16 13 -4 4 -12
-6 -24 -16 -26 -23 -3 -7 -6 -4 -7 7 0 18 -2 18 -10 3 -6 -10 -18 -14 -30 -11
-11 3 -17 9 -14 15 3 5 13 4 22 -4 15 -12 16 -11 3 5 -10 13 -17 15 -27 6 -7
-6 -19 -7 -26 -3 -8 5 -8 1 2 -11 14 -17 14 -18 -6 -7 -16 8 -24 8 -34 -1 -8
-7 -11 -8 -7 -1 4 7 -3 12 -18 12 -15 0 -22 -5 -18 -12 4 -7 1 -6 -7 1 -10 9
-18 9 -34 1 -20 -10 -20 -10 -6 7 14 17 13 17 -5 8 -11 -6 -23 -13 -26 -15 -3
-1 -13 3 -21 10 -13 10 -18 9 -28 -3 -7 -8 -16 -12 -21 -9 -18 10 -61 15 -55
5 3 -5 -1 -8 -10 -7 -8 1 -20 9 -25 17 -7 12 -9 12 -9 0 0 -8 -3 -11 -6 -8 -4
3 -16 1 -28 -5 l-21 -11 20 24 c11 13 13 18 5 12 -20 -16 -73 -35 -66 -25 2 4
-5 14 -17 22 -20 12 -21 11 -9 -2 10 -13 10 -17 0 -20 -20 -8 -39 2 -31 15 4
7 -1 6 -10 -2 -15 -12 -21 -9 -18 12 2 12 -6 8 -20 -10 -12 -14 -12 -16 0 -8
10 6 12 4 6 -4 -5 -9 -13 -7 -29 8 -15 14 -25 18 -32 11 -6 -6 -21 -12 -34
-15 -12 -2 -25 -6 -27 -9 -8 -8 -31 18 -25 28 3 5 0 6 -7 2 -6 -4 -8 -12 -5
-18 5 -7 2 -9 -8 -5 -9 3 -21 0 -28 -6 -9 -9 -11 -9 -7 -1 4 7 0 15 -9 18 -8
3 -12 2 -9 -4 3 -6 3 -10 -2 -11 -4 0 -16 -2 -25 -4 -10 -2 -22 4 -28 13 -5
10 -10 12 -10 6 0 -6 -12 -10 -27 -10 -16 1 -38 -2 -51 -6 -13 -5 -21 -4 -18
1 3 5 -1 12 -10 15 -8 3 -12 2 -9 -4 3 -6 3 -10 -2 -11 -4 0 -18 -2 -30 -3
-12 -1 -20 1 -17 6 3 4 -2 8 -10 8 -8 0 -18 -5 -21 -10 -5 -7 -11 -8 -19 -1
-7 6 -17 6 -26 1 -21 -14 -36 -12 -22 2 7 7 12 16 12 21 0 5 -6 2 -14 -6 -9
-9 -26 -12 -42 -9 -20 4 -25 2 -19 -8 6 -10 4 -11 -6 -4 -22 13 -42 14 -58 1
-10 -8 -13 -8 -8 -1 4 7 0 15 -9 18 -8 3 -12 2 -9 -4 3 -6 3 -10 -2 -11 -4 0
-16 -2 -25 -4 -10 -2 -22 4 -28 13 -7 13 -9 13 -10 3 0 -8 -3 -11 -6 -8 -4 3
-16 1 -28 -5 l-21 -11 20 23 20 24 -24 -17 c-17 -11 -29 -13 -42 -6 -12 6 -20
5 -25 -3 -4 -6 -3 -8 4 -4 6 3 13 2 16 -3 4 -5 -2 -8 -11 -6 -10 2 -18 4 -18
5 0 7 -45 8 -50 1 -3 -5 -14 -7 -25 -4 -19 5 -20 6 -3 20 17 13 16 13 -4 4
-12 -6 -24 -16 -26 -23 -3 -7 -6 -4 -7 7 0 18 -2 18 -10 3 -6 -10 -18 -14 -30
-11 -11 3 -17 9 -14 15 3 5 13 4 22 -4 15 -12 16 -11 3 5 -10 13 -17 15 -27 6
-7 -6 -19 -7 -26 -3 -8 5 -8 1 2 -11 14 -17 14 -18 -6 -7 -16 8 -24 8 -34 -1
-10 -9 -11 -9 -5 2 5 9 3 12 -6 9 -8 -3 -24 -1 -36 3 -14 5 -25 4 -29 -3 -4
-6 -3 -8 2 -5 6 3 16 1 24 -4 25 -16 -21 -5 -59 14 -23 12 -30 12 -22 3 9 -11
9 -15 -1 -18 -21 -7 -48 3 -42 16 3 6 -2 2 -10 -8 -11 -14 -16 -15 -16 -6 0
10 -3 11 -11 3 -14 -14 -51 -5 -43 11 3 6 -1 3 -9 -7 -11 -13 -16 -15 -20 -5
-4 11 -8 11 -27 0 -12 -8 -20 -9 -16 -4 3 5 -9 9 -26 10 -24 1 -28 -2 -18 -8
8 -6 10 -10 4 -10 -6 0 -14 3 -18 7 -11 11 -40 13 -52 2 -8 -7 -15 -6 -20 2
-4 7 -3 9 3 6 5 -3 10 1 10 10 0 12 -5 11 -19 -7 -10 -12 -18 -17 -18 -11 0 9
-6 9 -22 0 -20 -11 -22 -11 -10 3 10 13 10 18 1 24 -8 4 -9 3 -5 -4 5 -8 0
-12 -13 -12 -12 0 -23 1 -24 3 -2 1 -12 -5 -22 -13 -17 -13 -18 -13 -13 0 4
11 0 16 -12 16 -10 0 -17 -3 -14 -7 2 -4 -3 -10 -12 -13 -8 -3 -12 -2 -9 4 3
6 0 10 -9 10 -8 0 -16 5 -18 12 -3 7 -7 5 -11 -6 -4 -9 -3 -15 2 -11 5 3 12 1
15 -4 7 -10 -20 -9 -30 2 -4 3 -14 3 -23 -2 -23 -11 -40 -8 -51 9 -5 8 -10 10
-10 4 0 -6 -12 -10 -27 -10 -16 1 -38 -2 -50 -6 -13 -4 -25 -3 -29 4 -5 7 -3
8 6 3 9 -5 11 -4 6 4 -6 9 -11 9 -23 0 -17 -14 -55 -20 -47 -7 3 4 -2 8 -10 8
-8 0 -18 -5 -21 -10 -5 -8 -11 -8 -19 -1 -7 6 -16 8 -19 4 -4 -3 -13 0 -22 7
-12 10 -16 9 -21 -4 -6 -15 -8 -15 -21 1 -8 10 -12 12 -8 5 7 -13 -20 -12 -42
1 -9 6 -11 3 -7 -7 3 -9 1 -16 -5 -16 -6 0 -11 4 -11 9 0 5 -7 12 -16 15 -9 4
-13 2 -8 -5 4 -7 1 -10 -7 -7 -8 3 -23 1 -34 -5 -18 -9 -19 -9 -5 8 14 17 14
18 -10 5 -14 -7 -26 -14 -26 -14 -1 -1 -12 8 -25 19 -13 11 -21 16 -17 11 10
-11 -11 -38 -23 -30 -18 10 -61 15 -55 5 3 -5 -1 -8 -10 -7 -8 1 -20 9 -25 17
-7 12 -9 12 -9 0 0 -8 -3 -11 -6 -8 -4 3 -16 1 -28 -5 l-21 -11 20 24 c11 13
13 18 5 12 -20 -16 -73 -35 -66 -25 2 4 -5 14 -17 22 -20 12 -21 11 -9 -2 10
-13 10 -17 0 -20 -20 -8 -39 2 -31 15 4 7 -1 6 -10 -2 -15 -12 -21 -9 -18 12
2 12 -6 8 -20 -10 -12 -14 -12 -16 0 -8 10 6 12 4 7 -4 -6 -9 -13 -8 -29 6
-11 10 -17 12 -12 4 5 -9 3 -12 -6 -9 -8 3 -23 1 -34 -5 -18 -9 -19 -9 -5 8
14 17 14 18 -10 5 -26 -14 -28 -14 -46 1 -7 6 -16 4 -24 -6 -9 -10 -17 -12
-30 -5 -9 5 -20 7 -22 4 -14 -13 -49 -11 -58 4 -7 13 -9 13 -10 3 0 -8 -3 -11
-6 -8 -4 3 -16 1 -28 -5 l-21 -11 20 24 c11 13 13 18 5 12 -21 -16 -72 -35
-66 -24 3 5 -1 12 -10 15 -8 3 -12 2 -9 -4 3 -6 3 -10 -2 -11 -4 0 -18 -2 -30
-3 -12 -1 -20 1 -17 6 3 4 -2 8 -10 8 -8 0 -18 -5 -21 -10 -5 -7 -11 -8 -19
-1 -7 6 -17 6 -26 1 -27 -17 -35 -10 -11 10 27 23 16 27 -13 5 -17 -13 -22
-13 -40 3 -10 9 -16 11 -12 5 4 -7 2 -13 -4 -13 -6 0 -8 -5 -4 -12 5 -7 3 -8
-7 -2 -22 13 -42 14 -58 1 -10 -8 -13 -8 -8 -1 4 7 0 15 -9 18 -8 3 -12 2 -9
-4 3 -6 3 -10 -2 -11 -4 0 -16 -2 -25 -4 -10 -2 -22 4 -28 13 -5 10 -10 12
-10 6 0 -7 -16 -11 -37 -10 -21 1 -43 -2 -50 -6 -7 -6 -14 -4 -19 3 -5 8 -3 9
6 4 9 -5 11 -4 6 4 -6 9 -11 9 -23 0 -17 -14 -55 -20 -47 -7 8 12 -20 10 -33
-3 -8 -8 -13 -8 -17 0 -5 8 -13 8 -28 0 -18 -10 -19 -8 -13 12 l7 22 -23 -22
c-12 -11 -28 -21 -33 -21 -6 0 -4 5 4 10 12 8 10 10 -8 10 -15 0 -21 -4 -16
-12 5 -7 3 -8 -7 -2 -22 13 -42 14 -58 1 -10 -8 -13 -8 -8 -1 4 7 0 15 -9 18
-8 3 -12 2 -9 -4 3 -6 3 -10 -2 -11 -4 0 -16 -2 -25 -4 -10 -2 -22 4 -28 13
-7 13 -9 13 -10 3 0 -8 -3 -11 -6 -8 -4 3 -16 1 -28 -5 l-21 -11 20 24 c18 21
18 22 1 9 -10 -8 -41 -15 -70 -15 -28 -1 -57 -4 -63 -8 -6 -4 -15 -2 -19 4 -4
8 -3 9 4 5 18 -11 14 0 -5 15 -9 8 -14 9 -10 3 7 -12 -16 -38 -25 -28 -10 9
-60 15 -54 6 3 -5 -1 -9 -9 -9 -8 0 -12 4 -10 8 3 4 -2 10 -11 13 -9 4 -13 2
-8 -5 4 -7 1 -10 -7 -7 -8 3 -23 1 -34 -5 l-20 -10 20 23 20 23 -27 -18 c-16
-9 -28 -14 -28 -10 0 4 -6 2 -14 -4 -11 -9 -16 -9 -22 0 -5 8 -3 9 6 4 9 -6
11 -4 6 4 -6 9 -12 9 -25 -3 -10 -9 -20 -14 -23 -11 -11 11 -60 16 -53 5 3 -5
1 -10 -4 -10 -6 0 -11 4 -11 9 0 5 -7 12 -16 15 -9 4 -13 2 -8 -5 4 -7 1 -10
-7 -7 -8 3 -23 1 -34 -5 -18 -9 -19 -9 -5 8 14 17 14 18 -7 6 -13 -6 -23 -9
-23 -5 0 3 -6 1 -14 -5 -11 -9 -16 -9 -22 0 -4 8 -3 9 4 5 18 -11 14 0 -5 15
-9 8 -14 9 -10 3 7 -12 -16 -38 -25 -28 -10 9 -60 15 -54 6 3 -5 -1 -9 -9 -9
-8 0 -12 4 -10 8 3 4 -2 10 -11 13 -9 4 -13 2 -8 -5 4 -7 1 -10 -7 -7 -8 3
-23 1 -34 -5 -20 -10 -20 -9 -1 11 l18 21 -38 -20 -39 -19 -18 22 c-10 13 -16
17 -12 11 3 -7 4 -17 0 -23 -8 -13 -36 0 -28 14 4 8 2 8 -7 -1 -7 -6 -19 -9
-28 -6 -10 4 -13 2 -8 -5 4 -7 2 -12 -3 -12 -6 0 -11 4 -11 9 0 5 -7 12 -16
15 -9 4 -13 2 -8 -5 4 -7 1 -10 -7 -7 -8 3 -23 1 -34 -5 -18 -9 -19 -9 -5 8
14 17 14 18 -10 5 -14 -7 -26 -14 -26 -14 -1 -1 -12 8 -25 19 -12 11 -19 15
-16 9 7 -12 -16 -38 -25 -28 -10 10 -60 15 -54 5 3 -5 -1 -8 -10 -7 -8 1 -20
9 -25 17 -7 12 -9 12 -9 0 0 -8 -3 -11 -6 -8 -4 3 -16 1 -28 -5 l-21 -11 20
23 20 22 -34 -20 c-19 -12 -39 -18 -45 -14 -18 11 -40 11 -52 1 -8 -7 -15 -6
-20 2 -4 8 -3 9 4 5 8 -5 10 -1 5 10 -6 16 -8 15 -16 -4 -9 -20 -11 -21 -24
-4 -8 9 -12 12 -9 6 3 -7 -1 -15 -10 -18 -9 -3 -12 -2 -8 5 8 14 -45 9 -65 -6
-11 -8 -13 -6 -9 5 4 11 0 16 -13 16 -13 0 -18 -5 -14 -15 4 -11 3 -11 -9 -2
-9 7 -17 8 -20 2 -7 -10 -31 -9 -42 2 -4 3 -14 3 -23 -2 -23 -11 -40 -8 -51 9
-8 12 -10 12 -10 1 0 -8 -3 -11 -6 -8 -4 3 -16 1 -28 -5 l-21 -11 20 24 c11
13 13 18 5 12 -21 -16 -72 -35 -66 -24 3 5 -1 12 -10 15 -8 3 -12 2 -9 -4 3
-6 3 -10 -2 -11 -4 0 -18 -2 -30 -3 -12 -1 -20 1 -17 6 3 4 -2 8 -11 8 -10 0
-13 5 -9 13 5 8 2 8 -9 -2 -19 -15 -23 -26 -5 -15 7 5 8 3 4 -5 -6 -9 -12 -9
-25 3 -10 9 -22 16 -27 16 -5 0 -3 -4 4 -9 10 -6 9 -10 -7 -14 -12 -3 -19 -1
-15 4 3 5 -2 9 -11 9 -9 0 -14 -4 -11 -9 9 -14 -19 -7 -40 9 -10 8 -15 10 -11
3 4 -6 3 -14 -3 -18 -5 -3 -10 -1 -10 6 0 9 -3 9 -14 0 -11 -9 -16 -9 -22 0
-5 8 -3 9 6 4 9 -5 11 -4 6 4 -6 9 -11 9 -22 0 -8 -6 -14 -8 -14 -5 0 4 -10 1
-22 -5 -22 -12 -22 -11 -8 6 16 19 16 19 -31 -7 -4 -1 -17 6 -30 17 -12 11
-19 15 -16 9 7 -12 -16 -38 -25 -28 -10 9 -60 15 -54 6 3 -5 -1 -9 -9 -9 -8 0
-12 4 -10 8 3 4 -2 10 -11 13 -9 4 -13 2 -8 -5 4 -7 1 -10 -7 -7 -8 3 -23 1
-34 -5 l-20 -10 20 24 c11 13 13 18 5 12 -20 -16 -73 -35 -66 -25 2 4 -5 14
-17 22 -20 12 -21 11 -9 -2 10 -13 10 -17 0 -20 -20 -8 -39 2 -31 15 4 7 -1 6
-10 -2 -16 -12 -22 -8 -18 12 1 5 -3 6 -8 2 -6 -3 -8 -12 -4 -20 3 -8 1 -15
-5 -15 -6 0 -12 5 -14 10 -4 13 -46 21 -53 10 -3 -5 4 -7 15 -5 11 2 18 0 15
-5 -6 -9 -24 -8 -42 3 -7 5 -13 5 -13 1 0 -4 -10 1 -22 12 -15 13 -18 14 -10
3 16 -21 -2 -30 -33 -18 -11 4 -14 8 -6 8 8 1 11 4 7 8 -4 5 -14 -1 -22 -11
-9 -13 -14 -15 -14 -6 0 10 -3 11 -11 3 -14 -14 -51 -5 -43 11 3 6 -1 3 -9 -7
-11 -13 -16 -15 -20 -5 -4 11 -8 11 -27 0 -15 -10 -20 -10 -15 -1 5 7 3 10 -6
7 -8 -3 -24 -1 -36 3 -14 5 -25 4 -29 -3 -4 -6 -3 -8 2 -5 6 3 16 1 24 -4 11
-7 8 -8 -10 -5 -14 3 -25 5 -25 6 0 7 -45 8 -50 1 -8 -13 -46 -1 -39 13 3 6
-2 2 -10 -8 -11 -14 -16 -15 -16 -6 0 10 -3 11 -11 3 -14 -14 -51 -5 -43 11 3
6 -1 3 -9 -7 -11 -13 -16 -15 -20 -5 -4 11 -8 11 -27 0 -12 -8 -19 -9 -16 -4
3 5 -5 10 -19 10 -15 0 -22 -5 -18 -12 4 -7 1 -6 -7 1 -10 9 -18 9 -34 1 -20
-10 -20 -10 -6 7 14 17 14 18 -7 6 -13 -6 -23 -9 -23 -5 0 3 -6 1 -14 -5 -11
-9 -16 -9 -22 0 -4 8 -3 9 4 5 18 -11 14 0 -5 15 -9 8 -14 9 -10 3 7 -12 -16
-38 -25 -28 -10 9 -60 15 -54 6 3 -5 -1 -9 -9 -9 -8 0 -12 4 -10 8 3 4 -2 10
-11 13 -9 4 -13 2 -8 -5 4 -7 1 -10 -7 -7 -8 3 -23 1 -34 -5 l-20 -10 20 23
20 23 -27 -18 c-16 -9 -28 -14 -28 -9 0 4 -6 2 -12 -4 -10 -10 -16 -8 -31 10
-10 13 -16 17 -12 11 3 -7 4 -17 0 -23 -8 -13 -36 0 -28 14 4 8 2 8 -7 -1 -7
-6 -19 -9 -28 -6 -10 4 -13 2 -8 -5 4 -7 2 -12 -3 -12 -6 0 -11 4 -11 9 0 5
-7 12 -16 15 -9 4 -13 2 -8 -5 4 -7 1 -10 -7 -7 -8 3 -23 1 -34 -5 -18 -9 -19
-9 -5 8 14 17 14 18 -10 5 -14 -7 -26 -14 -26 -14 -1 -1 -12 8 -25 19 -13 11
-21 16 -17 11 10 -11 -11 -38 -23 -30 -17 10 -61 15 -55 6 3 -5 -1 -9 -9 -9
-8 0 -12 4 -10 8 3 4 -2 10 -11 13 -9 4 -13 2 -8 -5 4 -7 1 -10 -7 -7 -8 3
-23 1 -34 -5 l-20 -10 20 24 c11 13 13 18 5 12 -20 -16 -73 -35 -66 -25 2 4
-5 14 -17 22 -20 12 -21 11 -9 -2 10 -13 10 -17 0 -20 -20 -8 -39 2 -31 15 4
7 -1 6 -10 -2 -15 -12 -21 -9 -18 12 2 12 -6 8 -20 -10 -12 -14 -12 -16 0 -8
10 6 12 4 7 -4 -6 -9 -13 -8 -29 6 -11 10 -17 13 -14 7 4 -7 0 -15 -9 -18 -25
-9 -27 -7 -13 11 13 15 12 15 -8 4 -13 -6 -23 -9 -23 -7 0 3 -12 1 -26 -4 -16
-7 -23 -7 -19 0 3 6 1 10 -5 10 -6 0 -8 5 -4 12 4 7 3 8 -5 4 -6 -4 -8 -12 -5
-18 5 -7 2 -9 -8 -5 -9 3 -21 0 -28 -6 -9 -8 -11 -8 -7 -1 4 7 -3 12 -18 12
-14 0 -22 -4 -20 -8 3 -5 -2 -7 -11 -6 -8 1 -20 9 -25 17 -7 12 -9 12 -9 0 0
-8 -3 -11 -6 -8 -4 3 -16 1 -28 -5 l-21 -11 20 23 20 22 -35 -19 c-30 -17 -52
-22 -62 -14 -10 8 -48 9 -53 2 -8 -13 -46 -1 -39 13 3 6 -2 2 -10 -8 -16 -20
-16 -20 -16 0 -1 17 -2 17 -10 2 -11 -18 -53 -13 -44 6 3 6 -1 3 -9 -7 -11
-13 -16 -15 -20 -5 -4 11 -8 11 -27 0 -15 -10 -20 -10 -15 -1 5 7 3 10 -6 7
-8 -3 -24 -1 -36 3 -14 5 -25 4 -29 -3 -4 -6 -3 -8 2 -5 6 3 16 1 24 -4 12 -7
11 -8 -5 -6 -11 1 -26 6 -32 10 -7 5 -13 5 -13 1 0 -3 -8 0 -17 7 -9 8 -14 9
-10 3 9 -16 -13 -23 -38 -13 -11 4 -14 8 -6 8 8 1 11 4 7 8 -4 5 -14 -1 -22
-11 -9 -13 -14 -15 -14 -6 0 10 -3 11 -11 3 -12 -12 -52 -5 -43 8 3 5 -2 6
-10 3 -9 -3 -13 -10 -10 -15 3 -5 -2 -6 -10 -3 -9 3 -13 11 -9 18 3 6 -4 2
-17 -9 -13 -11 -21 -15 -17 -9 4 7 -5 11 -25 12 -24 1 -28 -2 -18 -8 8 -6 10
-10 4 -10 -6 0 -14 3 -18 7 -11 11 -40 13 -52 2 -8 -7 -15 -6 -20 2 -4 8 -3 9
4 5 8 -5 10 -1 5 10 -6 16 -8 15 -16 -4 -9 -20 -11 -21 -24 -4 -8 9 -12 12 -9
6 3 -7 -1 -15 -10 -18 -8 -3 -12 -2 -9 4 3 6 -3 10 -15 10 -14 0 -19 -4 -14
-12 6 -10 5 -10 -7 -1 -12 10 -18 10 -29 0 -10 -10 -12 -9 -8 3 4 11 -1 16
-13 16 -13 0 -18 -5 -14 -15 4 -11 2 -11 -8 -3 -10 9 -17 8 -27 -1 -10 -9 -11
-9 -6 1 4 6 3 12 -1 12 -5 0 -15 -6 -22 -12 -8 -8 -11 -8 -8 -2 4 7 -3 12 -18
12 -14 0 -22 -4 -20 -8 3 -5 -2 -7 -11 -6 -8 1 -20 9 -25 17 -7 12 -9 12 -9 0
0 -8 -3 -11 -6 -8 -4 3 -16 1 -28 -5 l-21 -11 20 24 c11 13 13 18 5 12 -20
-16 -73 -35 -66 -25 2 4 -5 14 -17 22 -20 12 -21 11 -9 -2 10 -13 10 -17 0
-20 -20 -8 -39 2 -31 15 4 7 -1 6 -10 -2 -15 -12 -21 -9 -18 12 2 12 -6 8 -20
-10 -12 -14 -12 -16 0 -8 10 6 12 4 7 -4 -6 -9 -12 -9 -25 3 -10 9 -22 16 -27
16 -5 0 -3 -4 4 -9 10 -6 9 -10 -7 -14 -12 -3 -19 -2 -17 2 2 3 -6 11 -18 17
-17 8 -23 7 -23 -2 0 -7 4 -11 8 -8 4 2 10 0 13 -5 9 -14 -19 -7 -40 9 -10 8
-15 10 -11 3 4 -6 3 -14 -3 -18 -5 -3 -10 -1 -10 5 0 6 -4 9 -9 5 -5 -3 -13
-1 -16 5 -5 8 -11 7 -21 -1 -8 -6 -14 -8 -14 -5 0 4 -10 1 -22 -5 -22 -12 -22
-11 -8 6 14 17 14 18 -7 6 -13 -6 -23 -9 -23 -5 0 3 -6 1 -14 -5 -11 -9 -16
-9 -22 0 -5 8 -3 9 7 4 12 -8 12 -6 0 8 -7 9 -16 17 -19 17 -3 0 -2 -3 1 -7 9
-9 -13 -34 -24 -27 -17 10 -61 15 -55 6 3 -5 -1 -9 -9 -9 -8 0 -12 4 -10 8 3
4 -2 10 -11 13 -9 4 -13 2 -8 -5 4 -7 1 -10 -7 -7 -8 3 -23 1 -34 -5 l-20 -10
20 23 20 23 -27 -18 c-16 -9 -28 -14 -28 -9 0 4 -6 2 -12 -4 -10 -10 -16 -8
-31 10 -10 13 -16 17 -12 11 3 -7 4 -17 0 -23 -8 -13 -36 0 -28 14 4 8 2 8 -7
-1 -7 -6 -19 -9 -28 -6 -10 4 -13 2 -8 -5 4 -7 2 -12 -3 -12 -6 0 -11 4 -11 9
0 5 -7 12 -16 15 -9 4 -13 2 -8 -5 4 -7 1 -10 -7 -7 -8 3 -23 1 -34 -5 -18 -9
-19 -9 -5 8 14 17 14 18 -7 6 -13 -6 -23 -9 -23 -5 0 3 -6 1 -14 -5 -11 -9
-16 -9 -22 0 -4 8 -3 9 4 5 18 -11 14 0 -5 15 -9 8 -14 9 -10 3 7 -12 -16 -38
-25 -28 -10 9 -60 15 -54 6 3 -5 -1 -9 -9 -9 -8 0 -12 4 -10 8 3 4 -2 10 -11
13 -9 4 -13 2 -8 -5 4 -7 1 -10 -7 -7 -8 3 -23 1 -34 -5 l-20 -10 20 24 c11
13 13 18 5 12 -20 -16 -73 -35 -66 -25 2 4 -5 14 -17 22 -20 12 -21 11 -9 -2
10 -13 10 -17 0 -20 -20 -8 -39 2 -31 15 4 7 -1 6 -10 -2 -16 -12 -22 -8 -18
12 1 5 -3 6 -8 2 -6 -3 -8 -12 -4 -20 3 -8 0 -15 -6 -15 -6 0 -11 4 -11 9 0 5
-7 12 -16 15 -9 4 -13 2 -8 -5 4 -7 1 -10 -7 -7 -8 3 -23 1 -34 -5 -18 -9 -19
-9 -5 8 14 17 14 18 -10 5 -14 -7 -26 -14 -26 -14 -1 -1 -12 8 -25 19 -12 11
-19 15 -16 9 7 -12 -16 -38 -25 -28 -10 10 -60 15 -54 5 3 -5 -1 -8 -10 -7 -8
1 -20 9 -25 17 -7 12 -9 12 -9 0 0 -8 -3 -11 -6 -8 -4 3 -16 1 -28 -5 l-21
-11 20 24 c11 13 13 18 5 12 -20 -16 -73 -35 -66 -25 2 4 -5 14 -17 22 -20 12
-21 11 -9 -2 10 -13 10 -17 0 -20 -20 -8 -39 2 -31 15 4 7 -1 6 -10 -2 -16
-13 -22 -8 -18 13 1 5 -5 4 -13 -4 -19 -15 -21 -24 -4 -14 7 5 8 3 3 -5 -5 -9
-13 -7 -29 8 -15 14 -25 18 -32 11 -6 -6 -20 -12 -32 -15 -12 -2 -25 -6 -30
-8 -10 -7 -32 19 -24 29 4 4 1 4 -6 0 -7 -4 -9 -12 -6 -18 5 -7 2 -9 -8 -5 -9
3 -21 0 -28 -6 -10 -9 -11 -9 -5 2 6 11 4 13 -11 7 -38 -15 -54 -15 -64 2 -5
9 -10 12 -10 6 0 -6 -19 -10 -47 -10 -27 1 -57 -3 -68 -8 -18 -8 -19 -7 -6 7
12 16 11 16 -24 1 -20 -8 -34 -11 -32 -7 3 5 -4 15 -16 23 -20 12 -21 11 -9
-2 10 -13 10 -17 0 -20 -20 -7 -39 2 -32 15 5 9 4 9 -6 0 -7 -6 -19 -9 -28 -6
-9 4 -13 2 -9 -4 3 -5 0 -10 -8 -10 -8 0 -12 4 -10 8 3 4 -2 10 -11 13 -9 4
-13 2 -8 -5 4 -7 1 -10 -7 -7 -8 3 -23 1 -34 -5 l-20 -10 20 23 20 23 -25 -15
c-27 -16 -38 -17 -56 -5 -7 4 -17 0 -24 -8 -7 -8 -16 -12 -21 -9 -17 10 -61
15 -55 6 3 -5 -1 -9 -9 -9 -8 0 -12 4 -10 8 3 4 -2 10 -11 13 -9 4 -13 2 -8
-5 4 -7 1 -10 -7 -7 -8 3 -23 1 -34 -5 -18 -9 -19 -9 -6 6 12 16 11 16 -24 1
-20 -8 -35 -11 -32 -7 3 4 -2 15 -11 23 -14 13 -15 12 -9 -3 6 -16 -4 -22 -28
-17 -42 9 -56 9 -51 2 3 -5 -1 -9 -9 -9 -8 0 -12 4 -10 8 3 4 -2 10 -11 13 -9
4 -13 2 -8 -5 4 -7 1 -10 -7 -7 -8 3 -23 1 -34 -5 l-20 -10 20 23 20 23 -25
-15 c-27 -16 -38 -17 -56 -5 -7 4 -17 0 -24 -8 -9 -10 -17 -12 -30 -5 -9 5
-20 7 -22 4 -9 -9 -49 -13 -43 -5 3 5 -2 12 -11 15 -8 3 -13 2 -9 -3 3 -5 -14
-8 -37 -7 -24 1 -48 -1 -55 -6 -7 -6 -14 -4 -19 3 -5 8 -3 9 7 4 12 -8 12 -6
0 8 -7 9 -16 17 -19 17 -3 0 -2 -3 1 -7 9 -9 -13 -34 -24 -27 -17 10 -61 15
-55 6 3 -5 -1 -9 -9 -9 -8 0 -12 4 -10 8 3 4 -2 10 -11 13 -9 4 -13 2 -8 -5 4
-7 1 -10 -7 -7 -8 3 -23 1 -34 -5 l-20 -10 20 23 20 24 -24 -16 c-13 -9 -30
-14 -39 -11 -11 5 -13 3 -7 -7 6 -10 4 -11 -6 -4 -21 13 -47 15 -54 4 -3 -6
-12 -10 -18 -10 -8 0 -8 3 1 9 10 6 7 10 -12 13 -15 3 -29 1 -33 -5 -4 -6 -1
-7 7 -2 9 6 11 4 5 -4 -5 -9 -10 -10 -18 -2 -13 13 -31 15 -23 3 3 -5 -2 -9
-10 -9 -8 0 -13 6 -10 13 3 8 0 16 -7 20 -7 4 -9 4 -5 -1 8 -8 -20 -34 -37
-35 -5 0 -3 5 5 10 12 8 10 10 -8 10 -16 0 -21 -4 -16 -12 5 -10 4 -10 -6 -1
-7 6 -19 9 -28 6 -11 -5 -13 -3 -7 8 5 8 -2 5 -15 -6 -13 -11 -20 -15 -17 -9
4 7 -3 12 -18 12 -14 0 -23 -4 -20 -8 2 -3 -2 -7 -10 -7 -8 0 -12 4 -10 8 3 4
-2 10 -11 13 -9 4 -13 2 -8 -5 4 -7 1 -10 -7 -7 -8 3 -23 1 -34 -5 -20 -10
-20 -9 -1 11 l18 21 -38 -20 -39 -19 -18 22 c-10 13 -16 17 -12 11 3 -7 4 -17
0 -23 -8 -13 -36 0 -28 14 4 8 2 8 -7 -1 -7 -6 -19 -9 -26 -6 -8 3 -14 0 -14
-7 0 -7 -6 -6 -16 4 -18 18 -34 21 -34 5 0 -5 5 -7 12 -3 7 4 8 3 4 -5 -5 -7
-12 -9 -19 -3 -22 17 -46 21 -53 10 -4 -6 -3 -8 2 -5 6 3 16 1 24 -4 11 -7 8
-8 -10 -5 -14 3 -29 5 -34 5 -5 1 -5 7 0 14 5 7 2 6 -6 -3 -14 -15 -17 -15
-30 0 -8 9 -12 11 -7 4 4 -7 1 -14 -8 -18 -9 -3 -13 -2 -10 4 8 14 -21 13 -48
-2 -19 -10 -21 -9 -9 4 10 13 10 18 1 24 -8 4 -9 3 -5 -4 4 -7 2 -13 -3 -13
-6 -1 -17 -2 -23 -3 -7 -1 -19 2 -25 7 -9 6 -15 4 -19 -7 -6 -15 -8 -15 -21 1
-8 10 -12 12 -8 5 5 -9 -1 -11 -25 -7 -17 3 -29 2 -26 -3 3 -5 -1 -9 -9 -9 -8
0 -12 4 -10 8 3 4 -2 10 -11 13 -9 4 -13 2 -8 -5 4 -7 1 -10 -7 -7 -8 3 -23 1
-34 -5 l-20 -10 20 23 20 23 -25 -15 c-27 -16 -38 -17 -56 -5 -7 4 -17 0 -24
-8 -9 -10 -17 -12 -30 -5 -9 5 -20 7 -22 4 -9 -9 -49 -13 -43 -5 3 5 -2 12
-11 15 -8 3 -13 2 -9 -3 7 -12 -15 -19 -37 -13 -10 2 -15 9 -12 16 3 6 -1 3
-9 -7 -11 -13 -16 -15 -20 -5 -4 11 -8 11 -27 0 -12 -8 -19 -9 -16 -4 3 5 -5
10 -19 10 -16 0 -22 -5 -18 -12 4 -7 1 -6 -8 1 -12 10 -18 10 -29 0 -8 -8 -11
-8 -7 -1 4 7 0 15 -9 18 -8 3 -12 2 -9 -3 3 -5 1 -12 -5 -16 -5 -3 -10 -2 -10
3 0 15 -28 23 -36 10 -4 -6 -3 -8 4 -4 6 3 13 2 16 -3 7 -11 -13 -9 -31 2 -7
5 -13 6 -13 3 0 -3 -11 -1 -25 4 -16 6 -27 6 -31 -2 -4 -6 -3 -8 4 -4 6 3 13
2 16 -3 8 -13 -13 -8 -53 12 -23 12 -30 12 -22 3 9 -11 9 -15 -1 -18 -21 -7
-48 3 -42 16 3 6 -2 2 -10 -8 -11 -14 -16 -15 -16 -6 0 10 -3 11 -11 3 -14
-14 -51 -5 -43 11 3 6 -1 3 -9 -7 -11 -13 -16 -15 -20 -5 -4 11 -8 11 -27 0
-12 -8 -19 -9 -15 -3 8 14 -1 14 -25 1 -13 -7 -21 -7 -25 0 -4 7 -14 6 -28 -2
-20 -10 -21 -10 -8 5 12 16 11 16 -24 1 -20 -8 -35 -11 -32 -7 3 4 -2 15 -11
23 -14 13 -15 12 -10 -2 7 -17 -9 -28 -30 -21 -6 3 -9 10 -6 16 5 9 4 9 -6 0
-7 -6 -19 -9 -28 -6 -9 4 -13 2 -9 -4 3 -5 0 -10 -8 -10 -8 0 -12 4 -10 8 3 4
-2 10 -11 13 -9 4 -13 2 -8 -5 4 -7 1 -10 -7 -7 -8 3 -23 1 -34 -5 l-20 -10
20 23 20 23 -30 -19 c-35 -23 -29 -22 -47 -6 -13 10 -18 9 -28 -3 -7 -8 -16
-12 -21 -9 -17 10 -61 15 -55 6 3 -5 -1 -9 -9 -9 -8 0 -12 4 -10 8 3 4 -2 10
-11 13 -8 3 -13 2 -9 -3 3 -5 -14 -8 -37 -7 -24 1 -49 -2 -55 -7 -9 -6 -15 -2
-21 14 l-9 23 -6 -23 c-3 -13 -10 -20 -16 -16 -18 11 -63 16 -57 7 3 -5 -1 -9
-9 -9 -8 0 -12 4 -10 8 3 4 -2 10 -11 13 -9 4 -13 2 -8 -5 4 -7 1 -10 -7 -7
-8 3 -23 1 -34 -5 l-20 -10 20 23 20 23 -27 -18 c-16 -9 -28 -14 -28 -10 0 4
-6 2 -14 -4 -11 -9 -16 -9 -22 0 -5 8 -3 9 6 4 9 -6 11 -4 6 4 -6 9 -12 9 -25
-3 -10 -9 -20 -14 -23 -11 -11 11 -60 16 -53 5 3 -5 1 -10 -4 -10 -6 0 -11 4
-11 9 0 5 -7 12 -16 15 -9 4 -13 2 -8 -5 4 -7 1 -10 -7 -7 -8 3 -23 1 -34 -5
-18 -9 -19 -9 -5 8 14 17 14 18 -7 6 -13 -6 -23 -9 -23 -5 0 3 -6 1 -14 -5
-11 -9 -16 -9 -22 0 -4 8 -3 9 4 5 18 -11 14 0 -5 15 -9 8 -14 9 -10 3 7 -12
-16 -38 -25 -28 -10 9 -60 15 -54 6 3 -5 -1 -9 -9 -9 -8 0 -12 4 -10 8 3 4 -2
10 -11 13 -9 4 -13 2 -8 -5 4 -7 1 -10 -7 -7 -8 3 -23 1 -34 -5 l-20 -10 20
23 20 24 -24 -17 c-17 -11 -29 -13 -42 -6 -12 6 -20 5 -25 -3 -4 -6 -3 -8 4
-4 6 3 13 2 16 -3 8 -13 -13 -8 -53 12 -23 12 -30 12 -22 3 9 -11 9 -15 -1
-18 -21 -7 -48 3 -42 16 3 6 -2 2 -10 -8 -11 -14 -16 -15 -16 -6 0 10 -3 11
-11 3 -14 -14 -51 -5 -43 11 3 6 -1 3 -9 -7 -11 -13 -16 -15 -20 -5 -4 11 -8
11 -27 0 -16 -10 -20 -10 -14 -1 5 9 2 10 -12 4 -26 -10 -57 -14 -69 -6 -18
10 -44 11 -50 2 -3 -5 -14 -7 -25 -4 -19 5 -20 6 -3 20 17 13 16 13 -4 4 -12
-6 -24 -16 -26 -23 -3 -7 -6 -4 -7 7 0 18 -2 18 -10 3 -6 -10 -18 -14 -30 -11
-11 3 -17 9 -14 15 3 5 13 4 22 -4 15 -12 16 -11 3 5 -10 13 -17 15 -27 6 -7
-6 -19 -7 -26 -3 -8 5 -8 1 2 -11 14 -17 14 -18 -6 -7 -16 8 -24 8 -34 -1 -7
-7 -10 -7 -7 -1 4 7 -6 11 -25 12 -24 1 -28 -2 -18 -8 8 -6 10 -10 4 -10 -6 0
-14 3 -18 7 -11 11 -45 13 -51 3 -3 -6 -12 -10 -18 -10 -8 0 -8 3 1 9 10 6 7
10 -12 13 -15 3 -29 1 -33 -5 -4 -6 -1 -7 7 -2 9 6 11 4 5 -4 -5 -9 -10 -10
-18 -2 -7 7 -16 7 -30 -1 -17 -8 -19 -8 -14 6 3 8 1 18 -6 22 -7 4 -9 4 -5 -1
4 -4 0 -14 -10 -21 -23 -18 -37 -18 -23 0 10 12 8 13 -8 9 -12 -3 -18 -10 -14
-16 4 -6 1 -7 -8 -1 -22 13 -42 14 -58 1 -10 -8 -13 -8 -8 -1 4 7 -2 12 -18
12 -14 0 -23 -4 -20 -8 2 -3 -2 -7 -10 -7 -8 0 -12 4 -10 8 3 4 -2 10 -11 13
-9 4 -13 2 -8 -5 4 -7 1 -10 -7 -7 -8 3 -23 1 -34 -5 l-20 -10 20 23 20 23
-27 -18 c-16 -9 -28 -14 -28 -10 0 4 -6 2 -14 -4 -11 -9 -16 -9 -22 0 -5 8 -3
9 6 4 9 -6 11 -4 6 4 -6 9 -12 9 -24 -2 -19 -16 -46 -11 -36 6 5 9 4 9 -6 0
-7 -6 -19 -9 -28 -6 -10 4 -13 2 -8 -5 4 -7 2 -12 -3 -12 -6 0 -11 4 -11 9 0
14 -29 21 -36 9 -5 -7 -2 -8 6 -3 9 6 11 4 6 -4 -6 -9 -13 -8 -29 6 -12 10
-17 12 -12 4 6 -11 4 -13 -8 -8 -9 3 -19 2 -22 -3 -8 -13 -25 -13 -25 1 0 5 4
7 10 4 6 -3 7 1 3 10 -4 12 -8 13 -13 5 -4 -7 -12 -10 -18 -6 -6 3 -14 1 -18
-5 -5 -8 -3 -9 6 -4 9 6 11 4 5 -4 -5 -9 -10 -10 -18 -2 -7 7 -16 7 -30 -1
-17 -8 -19 -8 -14 6 3 8 1 18 -6 22 -7 4 -9 4 -5 -1z m6267 -26 c-22 -14 -33
-10 -19 6 7 8 17 12 22 9 6 -4 5 -10 -3 -15z m11360 0 c-22 -14 -33 -10 -19 6
7 8 17 12 22 9 6 -4 5 -10 -3 -15z m2720 0 c-22 -14 -33 -10 -19 6 7 8 17 12
22 9 6 -4 5 -10 -3 -15z m696 -357 c-3 -3 -11 0 -18 7 -9 10 -8 11 6 5 10 -3
15 -9 12 -12z m-9279 -144 c3 -4 -1 -5 -10 -4 -8 1 -18 5 -22 8 -3 4 1 5 10 4
8 -1 18 -5 22 -8z m9281 -85 c0 -9 -4 -10 -14 -2 -7 6 -13 12 -13 14 0 1 6 2
13 2 8 0 14 -6 14 -14z m-16 -46 c-10 -9 -11 -8 -5 6 3 10 9 15 12 12 3 -3 0
-11 -7 -18z m16 -194 c0 -9 -4 -10 -14 -2 -7 6 -13 12 -13 14 0 1 6 2 13 2 8
0 14 -6 14 -14z m-16 -46 c-10 -9 -11 -8 -5 6 3 10 9 15 12 12 3 -3 0 -11 -7
-18z m14 -445 c-3 -3 -11 0 -18 7 -9 10 -8 11 6 5 10 -3 15 -9 12 -12z m2
-229 c0 -9 -4 -10 -14 -2 -7 6 -13 12 -13 14 0 1 6 2 13 2 8 0 14 -6 14 -14z
m-16 -46 c-10 -9 -11 -8 -5 6 3 10 9 15 12 12 3 -3 0 -11 -7 -18z m16 -194 c0
-9 -4 -10 -14 -2 -7 6 -13 12 -13 14 0 1 6 2 13 2 8 0 14 -6 14 -14z m-16 -46
c-10 -9 -11 -8 -5 6 3 10 9 15 12 12 3 -3 0 -11 -7 -18z m16 -434 c0 -9 -4
-10 -14 -2 -7 6 -13 12 -13 14 0 1 6 2 13 2 8 0 14 -6 14 -14z m0 -320 c0 -9
-4 -10 -14 -2 -7 6 -13 12 -13 14 0 1 6 2 13 2 8 0 14 -6 14 -14z m-3 -39 c3
-8 2 -12 -4 -9 -6 3 -10 10 -10 16 0 14 7 11 14 -7z m3 -281 c0 -9 -4 -10 -14
-2 -7 6 -13 12 -13 14 0 1 6 2 13 2 8 0 14 -6 14 -14z m0 -320 c0 -9 -4 -10
-14 -2 -7 6 -13 12 -13 14 0 1 6 2 13 2 8 0 14 -6 14 -14z m-3 -39 c3 -8 2
-12 -4 -9 -6 3 -10 10 -10 16 0 14 7 11 14 -7z m3 -281 c0 -9 -4 -10 -14 -2
-7 6 -13 12 -13 14 0 1 6 2 13 2 8 0 14 -6 14 -14z m0 -320 c0 -9 -4 -10 -14
-2 -7 6 -13 12 -13 14 0 1 6 2 13 2 8 0 14 -6 14 -14z m-3 -39 c3 -8 2 -12 -4
-9 -6 3 -10 10 -10 16 0 14 7 11 14 -7z m3 -281 c0 -9 -4 -10 -14 -2 -7 6 -13
12 -13 14 0 1 6 2 13 2 8 0 14 -6 14 -14z m0 -320 c0 -9 -4 -10 -14 -2 -7 6
-13 12 -13 14 0 1 6 2 13 2 8 0 14 -6 14 -14z m-7471 -129 c-1 -8 -6 -17 -11
-21 -4 -4 -5 -2 -1 5 4 7 1 12 -9 12 -9 0 -14 4 -11 8 8 14 34 10 32 -4z
m7471 -111 c0 -9 -4 -10 -14 -2 -7 6 -13 12 -13 14 0 1 6 2 13 2 8 0 14 -6 14
-14z m-16 -46 c-10 -9 -11 -8 -5 6 3 10 9 15 12 12 3 -3 0 -11 -7 -18z m16
-194 c0 -9 -4 -10 -14 -2 -7 6 -13 12 -13 14 0 1 6 2 13 2 8 0 14 -6 14 -14z
m-16 -46 c-10 -9 -11 -8 -5 6 3 10 9 15 12 12 3 -3 0 -11 -7 -18z m14 -445
c-3 -3 -11 0 -18 7 -9 10 -8 11 6 5 10 -3 15 -9 12 -12z m2 -229 c0 -9 -4 -10
-14 -2 -7 6 -13 12 -13 14 0 1 6 2 13 2 8 0 14 -6 14 -14z m-16 -46 c-10 -9
-11 -8 -5 6 3 10 9 15 12 12 3 -3 0 -11 -7 -18z m16 -194 c0 -9 -4 -10 -14 -2
-7 6 -13 12 -13 14 0 1 6 2 13 2 8 0 14 -6 14 -14z m-16 -46 c-10 -9 -11 -8
-5 6 3 10 9 15 12 12 3 -3 0 -11 -7 -18z m14 -445 c-3 -3 -11 0 -18 7 -9 10
-8 11 6 5 10 -3 15 -9 12 -12z m2 -229 c0 -9 -4 -10 -14 -2 -7 6 -13 12 -13
14 0 1 6 2 13 2 8 0 14 -6 14 -14z m-16 -46 c-10 -9 -11 -8 -5 6 3 10 9 15 12
12 3 -3 0 -11 -7 -18z m16 -194 c0 -9 -4 -10 -14 -2 -7 6 -13 12 -13 14 0 1 6
2 13 2 8 0 14 -6 14 -14z m-16 -46 c-10 -9 -11 -8 -5 6 3 10 9 15 12 12 3 -3
0 -11 -7 -18z m16 -434 c0 -9 -4 -10 -14 -2 -7 6 -13 12 -13 14 0 1 6 2 13 2
8 0 14 -6 14 -14z m0 -320 c0 -9 -4 -10 -14 -2 -7 6 -13 12 -13 14 0 1 6 2 13
2 8 0 14 -6 14 -14z m-3 -39 c3 -8 2 -12 -4 -9 -6 3 -10 10 -10 16 0 14 7 11
14 -7z m3 -281 c0 -9 -4 -10 -14 -2 -7 6 -13 12 -13 14 0 1 6 2 13 2 8 0 14
-6 14 -14z m0 -320 c0 -9 -4 -10 -14 -2 -7 6 -13 12 -13 14 0 1 6 2 13 2 8 0
14 -6 14 -14z m-3 -39 c3 -8 2 -12 -4 -9 -6 3 -10 10 -10 16 0 14 7 11 14 -7z
m3 -281 c0 -9 -4 -10 -14 -2 -7 6 -13 12 -13 14 0 1 6 2 13 2 8 0 14 -6 14
-14z m-17851 -238 c1 -8 -1 -17 -5 -19 -4 -3 -7 6 -7 19 0 25 8 25 12 0z
m17851 -82 c0 -9 -4 -10 -14 -2 -7 6 -13 12 -13 14 0 1 6 2 13 2 8 0 14 -6 14
-14z m-3 -39 c3 -8 2 -12 -4 -9 -6 3 -10 10 -10 16 0 14 7 11 14 -7z m3 -281
c0 -9 -4 -10 -14 -2 -7 6 -13 12 -13 14 0 1 6 2 13 2 8 0 14 -6 14 -14z m0
-320 c0 -9 -4 -10 -14 -2 -7 6 -13 12 -13 14 0 1 6 2 13 2 8 0 14 -6 14 -14z
m0 -240 c0 -9 -4 -10 -14 -2 -7 6 -13 12 -13 14 0 1 6 2 13 2 8 0 14 -6 14
-14z m-16 -46 c-10 -9 -11 -8 -5 6 3 10 9 15 12 12 3 -3 0 -11 -7 -18z m16
-194 c0 -9 -4 -10 -14 -2 -7 6 -13 12 -13 14 0 1 6 2 13 2 8 0 14 -6 14 -14z
m-16 -46 c-10 -9 -11 -8 -5 6 3 10 9 15 12 12 3 -3 0 -11 -7 -18z m14 -445
c-3 -3 -11 0 -18 7 -9 10 -8 11 6 5 10 -3 15 -9 12 -12z m2 -229 c0 -9 -4 -10
-14 -2 -7 6 -13 12 -13 14 0 1 6 2 13 2 8 0 14 -6 14 -14z m-16 -46 c-10 -9
-11 -8 -5 6 3 10 9 15 12 12 3 -3 0 -11 -7 -18z m16 -194 c0 -9 -4 -10 -14 -2
-7 6 -13 12 -13 14 0 1 6 2 13 2 8 0 14 -6 14 -14z m-16 -46 c-10 -9 -11 -8
-5 6 3 10 9 15 12 12 3 -3 0 -11 -7 -18z m14 -445 c-3 -3 -11 0 -18 7 -9 10
-8 11 6 5 10 -3 15 -9 12 -12z m2 -229 c0 -9 -4 -10 -14 -2 -7 6 -13 12 -13
14 0 1 6 2 13 2 8 0 14 -6 14 -14z m-16 -46 c-10 -9 -11 -8 -5 6 3 10 9 15 12
12 3 -3 0 -11 -7 -18z m16 -194 c0 -9 -4 -10 -14 -2 -7 6 -13 12 -13 14 0 1 6
2 13 2 8 0 14 -6 14 -14z m-16 -46 c-10 -9 -11 -8 -5 6 3 10 9 15 12 12 3 -3
0 -11 -7 -18z m-21446 -487 c3 -6 -1 -7 -9 -4 -18 7 -21 14 -7 14 6 0 13 -4
16 -10z m2595 -514 c0 -2 -7 -7 -16 -10 -8 -3 -12 -2 -9 4 6 10 25 14 25 6z
m-5 -46 c-3 -5 -1 -10 6 -10 7 0 10 -3 6 -6 -9 -9 -28 6 -22 17 4 5 8 9 11 9
3 0 2 -4 -1 -10z m5 -40 c0 -5 -2 -10 -4 -10 -3 0 -8 5 -11 10 -3 6 -1 10 4
10 6 0 11 -4 11 -10z m-16 -18 c2 -4 -4 -8 -14 -8 -10 0 -16 4 -14 8 3 4 9 8
14 8 5 0 11 -4 14 -8z m-15 -38 c-7 -8 -6 -14 1 -19 13 -8 -6 -35 -24 -34 -6
0 -5 3 3 6 11 4 11 7 0 13 -10 7 -10 12 0 23 9 12 9 16 -1 20 -7 3 -3 4 9 4
16 -1 19 -4 12 -13z m18456 -1464 c-3 -5 -11 -10 -16 -10 -6 0 -7 5 -4 10 3 6
11 10 16 10 6 0 7 -4 4 -10z m-19985 -796 c0 -8 -19 -13 -24 -6 -3 5 1 9 9 9
8 0 15 -2 15 -3z m19424 -303 c3 -5 -2 -15 -12 -22 -15 -12 -16 -12 -5 2 7 9
10 19 6 22 -3 4 -4 7 0 7 3 0 8 -4 11 -9z m-12873 -1458 c-12 -20 -14 -14 -5
12 4 9 9 14 11 11 3 -2 0 -13 -6 -23z m-5200 -470 c13 -16 12 -17 -3 -4 -10 7
-18 15 -18 17 0 8 8 3 21 -13z m16635 -291 c-17 -16 -18 -16 -5 5 7 12 15 20
18 17 3 -2 -3 -12 -13 -22z m-11460 -71 c-3 -5 1 -12 10 -15 8 -3 12 -11 9
-17 -4 -6 -13 -8 -20 -5 -7 2 -18 -1 -24 -7 -9 -9 -11 -8 -6 6 5 12 2 17 -11
17 -16 0 -17 2 -4 10 10 6 16 6 18 0 4 -12 23 -14 21 -2 -2 12 1 22 7 22 3 0
3 -4 0 -9z m9890 -1829 c-17 -16 -18 -16 -5 5 7 12 15 20 18 17 3 -2 -3 -12
-13 -22z m-366 -357 c0 -2 -10 -9 -22 -15 -22 -11 -22 -10 -4 4 21 17 26 19
26 11z m-380 -309 c0 -2 -8 -10 -17 -17 -16 -13 -17 -12 -4 4 13 16 21 21 21
13z m-604 -494 c-17 -16 -18 -16 -5 5 7 12 15 20 18 17 3 -2 -3 -12 -13 -22z
m-6046 -624 c0 -19 -16 -5 -17 14 -2 18 0 20 7 8 5 -8 10 -18 10 -22z m4530
-482 c0 -3 -4 -8 -10 -11 -5 -3 -10 -1 -10 4 0 6 5 11 10 11 6 0 10 -2 10 -4z
m-5830 -1006 c0 -5 -2 -10 -4 -10 -3 0 -8 5 -11 10 -3 6 -1 10 4 10 6 0 11 -4
11 -10z m82 -34 c7 4 8 2 4 -5 -9 -13 -26 -5 -25 12 0 9 2 8 6 -1 2 -6 10 -9
15 -6z m2895 -448 c-3 -8 -6 -5 -6 6 -1 11 2 17 5 13 3 -3 4 -12 1 -19z"/>
<path d="M4175 25159 c-4 -6 -13 -8 -21 -5 -7 3 -15 2 -18 -2 -9 -14 33 -11
45 4 6 8 9 14 6 14 -3 0 -9 -5 -12 -11z"/>
<path d="M4290 25161 c0 -6 4 -13 10 -16 6 -3 7 1 4 9 -7 18 -14 21 -14 7z"/>
<path d="M5769 25153 c-13 -16 -12 -17 4 -4 16 13 21 21 13 21 -2 0 -10 -8
-17 -17z"/>
<path d="M5890 25161 c0 -6 4 -13 10 -16 6 -3 7 1 4 9 -7 18 -14 21 -14 7z"/>
<path d="M6446 25153 c-6 -14 -5 -15 5 -6 7 7 10 15 7 18 -3 3 -9 -2 -12 -12z"/>
<path d="M8046 25153 c-6 -14 -5 -15 5 -6 7 7 10 15 7 18 -3 3 -9 -2 -12 -12z"/>
<path d="M9083 25155 c0 -8 4 -12 9 -9 5 3 6 10 3 15 -9 13 -12 11 -12 -6z"/>
<path d="M11650 25161 c0 -6 4 -13 10 -16 6 -3 7 1 4 9 -7 18 -14 21 -14 7z"/>
<path d="M11970 25161 c0 -6 4 -13 10 -16 6 -3 7 1 4 9 -7 18 -14 21 -14 7z"/>
<path d="M12050 25161 c0 -6 4 -13 10 -16 6 -3 7 1 4 9 -7 18 -14 21 -14 7z"/>
<path d="M13570 25161 c0 -6 4 -13 10 -16 6 -3 7 1 4 9 -7 18 -14 21 -14 7z"/>
<path d="M13655 25161 c-3 -5 -2 -12 3 -15 5 -3 9 1 9 9 0 17 -3 19 -12 6z"/>
<path d="M14651 25154 c0 -11 3 -14 6 -6 3 7 2 16 -1 19 -3 4 -6 -2 -5 -13z"/>
<path d="M15003 25155 c0 -8 4 -12 9 -9 5 3 6 10 3 15 -9 13 -12 11 -12 -6z"/>
<path d="M17723 25155 c0 -8 4 -12 9 -9 5 3 6 10 3 15 -9 13 -12 11 -12 -6z"/>
<path d="M18843 25155 c0 -8 4 -12 9 -9 5 3 6 10 3 15 -9 13 -12 11 -12 -6z"/>
<path d="M21455 25159 c-4 -6 -13 -8 -21 -5 -7 3 -15 2 -18 -2 -9 -14 33 -11
45 4 6 8 9 14 6 14 -3 0 -9 -5 -12 -11z"/>
<path d="M22043 25155 c0 -8 4 -12 9 -9 5 3 6 10 3 15 -9 13 -12 11 -12 -6z"/>
<path d="M23163 25155 c0 -8 4 -12 9 -9 5 3 6 10 3 15 -9 13 -12 11 -12 -6z"/>
<path d="M23643 25155 c0 -8 4 -12 9 -9 5 3 6 10 3 15 -9 13 -12 11 -12 -6z"/>
<path d="M12135 25149 c-3 -4 2 -6 10 -5 21 3 28 13 10 13 -9 0 -18 -4 -20 -8z"/>
<path d="M15056 25152 c-3 -5 1 -9 9 -9 8 0 12 4 9 9 -3 4 -7 8 -9 8 -2 0 -6
-4 -9 -8z"/>
<path d="M24055 22720 c-3 -5 -1 -10 4 -10 6 0 11 5 11 10 0 6 -2 10 -4 10 -3
0 -8 -4 -11 -10z"/>
<path d="M24055 22080 c-3 -5 -1 -10 4 -10 6 0 11 5 11 10 0 6 -2 10 -4 10 -3
0 -8 -4 -11 -10z"/>
<path d="M24055 21440 c-3 -5 -1 -10 4 -10 6 0 11 5 11 10 0 6 -2 10 -4 10 -3
0 -8 -4 -11 -10z"/>
<path d="M24055 20800 c-3 -5 -1 -10 4 -10 6 0 11 5 11 10 0 6 -2 10 -4 10 -3
0 -8 -4 -11 -10z"/>
<path d="M24055 17600 c-3 -5 -1 -10 4 -10 6 0 11 5 11 10 0 6 -2 10 -4 10 -3
0 -8 -4 -11 -10z"/>
<path d="M24055 16960 c-3 -5 -1 -10 4 -10 6 0 11 5 11 10 0 6 -2 10 -4 10 -3
0 -8 -4 -11 -10z"/>
<path d="M24055 16320 c-3 -5 -1 -10 4 -10 6 0 11 5 11 10 0 6 -2 10 -4 10 -3
0 -8 -4 -11 -10z"/>
<path d="M24055 15680 c-3 -5 -1 -10 4 -10 6 0 11 5 11 10 0 6 -2 10 -4 10 -3
0 -8 -4 -11 -10z"/>
<path d="M24055 12420 c-3 -5 -1 -10 4 -10 6 0 11 5 11 10 0 6 -2 10 -4 10 -3
0 -8 -4 -11 -10z"/>
<path d="M24056 11841 c-3 -5 1 -11 9 -14 9 -4 12 -1 8 9 -6 16 -10 17 -17 5z"/>
<path d="M23829 10963 c-13 -16 -12 -17 4 -4 16 13 21 21 13 21 -2 0 -10 -8
-17 -17z"/>
<path d="M20935 6220 c-3 -5 -1 -10 4 -10 6 0 11 5 11 10 0 6 -2 10 -4 10 -3
0 -8 -4 -11 -10z"/>
<path d="M12170 1590 c0 -5 5 -10 11 -10 5 0 7 5 4 10 -3 6 -8 10 -11 10 -2 0
-4 -4 -4 -10z"/>
<path d="M17225 1180 c-3 -6 1 -7 9 -4 18 7 21 14 7 14 -6 0 -13 -4 -16 -10z"/>
</g>
</svg>
